<?xml version="1.0" encoding="UTF-8"?>
<svg version="1.1" xmlns="http://www.w3.org/2000/svg" width="217" height="216">
<path d="M0 0 C1.68441639 0.28939312 3.3718127 0.56233326 5.0625 0.8125 C20.12646486 3.51735557 35.31539527 9.61103997 47.1171875 19.453125 C49.1283357 21.17501554 49.1283357 21.17501554 52.125 22.9375 C56.09075388 25.78249735 58.90839589 29.24994066 62 33 C62.74894531 33.87398437 63.49789062 34.74796875 64.26953125 35.6484375 C68.48098607 40.63513524 72.11996801 45.46387822 75.02734375 51.3203125 C75.89741028 53.17783598 75.89741028 53.17783598 78 54 C78.35570102 55.6620366 78.68248075 57.3302484 79 59 C79.69997382 60.92645855 80.40162554 62.85237377 81.12084961 64.77172852 C91.32050992 92.60201241 87.43850653 121.97388266 75.40625 148.515625 C71.91364683 155.46788225 67.73922773 160.97648285 62.33203125 166.5625 C59.98270103 168.92758798 59.98270103 168.92758798 58.11328125 171.47265625 C55.50142155 174.59626665 52.58965881 176.95976933 49.375 179.4375 C48.74964355 179.92049561 48.12428711 180.40349121 47.47998047 180.90112305 C31.71951724 192.92075232 11.10015 201.6381 -9 201 C-9.33 201.99 -9.66 202.98 -10 204 C-10 203.34 -10 202.68 -10 202 C-10.76441406 202.02320313 -11.52882813 202.04640625 -12.31640625 202.0703125 C-25.76775849 202.29692975 -38.98030052 200.32105201 -52 197 C-52 196.34 -52 195.68 -52 195 C-53.12792969 194.77441406 -54.25585938 194.54882812 -55.41796875 194.31640625 C-60.54261474 193.0349625 -64.78231481 190.59105504 -69.3125 187.9375 C-70.89070799 187.02782959 -72.47008688 186.12018678 -74.05078125 185.21484375 C-74.73825439 184.81386475 -75.42572754 184.41288574 -76.1340332 183.99975586 C-78.12985298 182.86266356 -78.12985298 182.86266356 -81 182 C-81 181.01 -81 180.02 -81 179 C-81.58265625 178.731875 -82.1653125 178.46375 -82.765625 178.1875 C-85.02786601 176.98519009 -86.80576318 175.66174087 -88.75 174 C-89.36359375 173.484375 -89.9771875 172.96875 -90.609375 172.4375 C-92 171 -92 171 -92 169 C-92.99 168.67 -93.98 168.34 -95 168 C-95 167.34 -95 166.68 -95 166 C-95.66 166 -96.32 166 -97 166 C-98.2890625 164.5390625 -98.2890625 164.5390625 -99.625 162.625 C-100.07101563 161.99851563 -100.51703125 161.37203125 -100.9765625 160.7265625 C-102 159 -102 159 -102 157 C-102.99 157.33 -103.98 157.66 -105 158 C-104.9175 157.278125 -104.835 156.55625 -104.75 155.8125 C-105.07592896 152.14579924 -106.65895924 150.76668454 -109 148 C-109.351208 146.67126307 -109.68103392 145.33684312 -110 144 C-111.26734604 140.90435148 -112.60366662 137.84315497 -113.94140625 134.77734375 C-115 132 -115 132 -115 129 C-115.66 128.67 -116.32 128.34 -117 128 C-118.7463182 120.75601341 -119.25164681 113.423581 -119 106 C-119.66 106 -120.32 106 -121 106 C-121.02686553 104.02090602 -121.04633375 102.04171029 -121.0625 100.0625 C-121.07410156 98.96035156 -121.08570312 97.85820313 -121.09765625 96.72265625 C-121 94 -121 94 -120 93 C-119.68588862 90.975255 -119.37771917 88.94939285 -119.10107422 86.91918945 C-116.82723649 70.44098153 -111.62439988 57.13776973 -103 43 C-102.19175781 41.63294922 -102.19175781 41.63294922 -101.3671875 40.23828125 C-98.50167312 35.62683871 -95.31957005 32.18595896 -91.125 28.74609375 C-88.89327596 26.9123058 -86.80198917 24.96723011 -84.6875 23 C-66.47668074 6.89878161 -43.98612595 0.53591533 -20.25 -1.4375 C-19.15518311 -1.53071533 -18.06036621 -1.62393066 -16.93237305 -1.7199707 C-10.75782172 -2.13649467 -5.91167104 -1.8079698 0 0 Z " fill="#15140C" transform="translate(124,7)"/>
<path d="M0 0 C1.68441639 0.28939312 3.3718127 0.56233326 5.0625 0.8125 C20.12646486 3.51735557 35.31539527 9.61103997 47.1171875 19.453125 C49.1283357 21.17501554 49.1283357 21.17501554 52.125 22.9375 C56.09075388 25.78249735 58.90839589 29.24994066 62 33 C62.74894531 33.87398437 63.49789062 34.74796875 64.26953125 35.6484375 C68.48098607 40.63513524 72.11996801 45.46387822 75.02734375 51.3203125 C75.89741028 53.17783598 75.89741028 53.17783598 78 54 C78.35570102 55.6620366 78.68248075 57.3302484 79 59 C79.69997382 60.92645855 80.40162554 62.85237377 81.12084961 64.77172852 C91.32050992 92.60201241 87.43850653 121.97388266 75.40625 148.515625 C71.91364683 155.46788225 67.73922773 160.97648285 62.33203125 166.5625 C59.98270103 168.92758798 59.98270103 168.92758798 58.11328125 171.47265625 C55.50142155 174.59626665 52.58965881 176.95976933 49.375 179.4375 C48.74964355 179.92049561 48.12428711 180.40349121 47.47998047 180.90112305 C31.71951724 192.92075232 11.10015 201.6381 -9 201 C-9.33 201.99 -9.66 202.98 -10 204 C-10 203.34 -10 202.68 -10 202 C-10.76441406 202.02320313 -11.52882813 202.04640625 -12.31640625 202.0703125 C-25.76775849 202.29692975 -38.98030052 200.32105201 -52 197 C-52 196.34 -52 195.68 -52 195 C-53.12792969 194.77441406 -54.25585938 194.54882812 -55.41796875 194.31640625 C-60.54261474 193.0349625 -64.78231481 190.59105504 -69.3125 187.9375 C-70.89070799 187.02782959 -72.47008688 186.12018678 -74.05078125 185.21484375 C-74.73825439 184.81386475 -75.42572754 184.41288574 -76.1340332 183.99975586 C-78.12985298 182.86266356 -78.12985298 182.86266356 -81 182 C-81 181.01 -81 180.02 -81 179 C-81.58265625 178.731875 -82.1653125 178.46375 -82.765625 178.1875 C-85.02786601 176.98519009 -86.80576318 175.66174087 -88.75 174 C-89.36359375 173.484375 -89.9771875 172.96875 -90.609375 172.4375 C-92 171 -92 171 -92 169 C-92.99 168.67 -93.98 168.34 -95 168 C-95 167.34 -95 166.68 -95 166 C-95.66 166 -96.32 166 -97 166 C-98.2890625 164.5390625 -98.2890625 164.5390625 -99.625 162.625 C-100.07101563 161.99851563 -100.51703125 161.37203125 -100.9765625 160.7265625 C-102 159 -102 159 -102 157 C-102.99 157.33 -103.98 157.66 -105 158 C-104.9175 157.278125 -104.835 156.55625 -104.75 155.8125 C-105.07592896 152.14579924 -106.65895924 150.76668454 -109 148 C-109.351208 146.67126307 -109.68103392 145.33684312 -110 144 C-111.26734604 140.90435148 -112.60366662 137.84315497 -113.94140625 134.77734375 C-115 132 -115 132 -115 129 C-115.66 128.67 -116.32 128.34 -117 128 C-118.7463182 120.75601341 -119.25164681 113.423581 -119 106 C-119.66 106 -120.32 106 -121 106 C-121.02686553 104.02090602 -121.04633375 102.04171029 -121.0625 100.0625 C-121.07410156 98.96035156 -121.08570312 97.85820313 -121.09765625 96.72265625 C-121 94 -121 94 -120 93 C-119.68588862 90.975255 -119.37771917 88.94939285 -119.10107422 86.91918945 C-116.82723649 70.44098153 -111.62439988 57.13776973 -103 43 C-102.19175781 41.63294922 -102.19175781 41.63294922 -101.3671875 40.23828125 C-98.50167312 35.62683871 -95.31957005 32.18595896 -91.125 28.74609375 C-88.89327596 26.9123058 -86.80198917 24.96723011 -84.6875 23 C-66.47668074 6.89878161 -43.98612595 0.53591533 -20.25 -1.4375 C-19.15518311 -1.53071533 -18.06036621 -1.62393066 -16.93237305 -1.7199707 C-10.75782172 -2.13649467 -5.91167104 -1.8079698 0 0 Z M-47 11 C-47.62229492 11.20898926 -48.24458984 11.41797852 -48.88574219 11.63330078 C-72.46109152 19.64172097 -92.02046854 36.61683367 -103.171875 58.9140625 C-113.61699484 81.20494715 -113.92514084 108.15059899 -105.99975586 131.265625 C-101.08976913 144.67016058 -93.87648953 154.87216268 -84 165 C-83.14148438 165.96873047 -83.14148438 165.96873047 -82.265625 166.95703125 C-69.52884076 180.97405927 -47.85994645 191.1187435 -29.10009766 192.16113281 C-8.82534902 192.63797247 -8.82534902 192.63797247 11 189 C12.13566406 188.67128906 13.27132812 188.34257812 14.44140625 188.00390625 C30.02286265 182.97257564 42.76654969 174.80585542 54 163 C54.90621094 162.05253906 55.81242188 161.10507813 56.74609375 160.12890625 C74.72973944 139.95547113 79.17033054 114.24262105 78 88 C76.10017667 64.10503891 63.03032444 42.83952861 45.08984375 27.46484375 C20.08605437 7.51871088 -16.60454404 0.27808641 -47 11 Z " fill="#F7EC4C" transform="translate(124,7)"/>
<path d="M0 0 C0.99061935 0.00081573 0.99061935 0.00081573 2.00125122 0.00164795 C12.70067521 0.04208845 22.26086371 0.90698936 32.375 4.375 C33.01920898 4.59462402 33.66341797 4.81424805 34.32714844 5.04052734 C43.25024384 8.15369618 51.38977714 12.3336381 59.375 17.375 C60.05949219 17.79136719 60.74398437 18.20773438 61.44921875 18.63671875 C63.125 19.6875 63.125 19.6875 65.375 21.375 C65.375 22.035 65.375 22.695 65.375 23.375 C65.93574219 23.6121875 66.49648437 23.849375 67.07421875 24.09375 C83.57162595 33.28076114 93.46100574 55.52316334 98.46484375 72.9140625 C100.48215472 80.58503898 100.61263492 87.84467298 100.625 95.75 C100.62733643 96.42363586 100.62967285 97.09727173 100.63208008 97.7913208 C100.64500659 107.62574964 100.1679487 116.89892407 97.375 126.375 C96.715 126.375 96.055 126.375 95.375 126.375 C95.375 122.415 95.375 118.455 95.375 114.375 C95.1790625 115.40496094 94.983125 116.43492188 94.78125 117.49609375 C89.88623335 141.48764832 76.94902792 162.83712301 56.2890625 176.62109375 C44.24574971 183.86968282 29.73623033 191.96042595 15.375 191.375 C18.83169799 189.40707787 22.26293254 188.63678373 26.125 187.75 C47.75522086 182.35447643 68.89991837 167.58152203 80.52539062 148.48535156 C92.71983139 126.8621094 97.73376729 99.72281878 91.375 75.375 C84.63309722 51.48576714 70.43407051 31.88864597 48.8359375 19.19140625 C26.05619021 7.23589554 -2.09672157 2.54453921 -27.0703125 10.12109375 C-28.24335937 10.53488281 -29.41640625 10.94867188 -30.625 11.375 C-31.24729492 11.58398926 -31.86958984 11.79297852 -32.51074219 12.00830078 C-46.04580177 16.6060882 -57.46182532 23.77324968 -67.734375 33.72265625 C-69.625 35.375 -69.625 35.375 -71.625 35.375 C-71.295 34.385 -70.965 33.395 -70.625 32.375 C-71.285 32.045 -71.945 31.715 -72.625 31.375 C-72.625 32.035 -72.625 32.695 -72.625 33.375 C-75.36455562 36.41895069 -77.80563472 38.81896229 -81.625 40.375 C-81.625 41.035 -81.625 41.695 -81.625 42.375 C-82.285 42.045 -82.945 41.715 -83.625 41.375 C-66.78727759 19.52178581 -45.01823159 5.53059463 -17.71508789 0.77416992 C-11.82287796 0.0130288 -5.93393708 -0.0082703 0 0 Z " fill="#F9EE4D" transform="translate(107.625,7.625)"/>
<path d="M0 0 C0 3.96 0 7.92 0 12 C18.48 12 36.96 12 56 12 C56 8.37 56 4.74 56 1 C61.28187539 4.433219 66.47060346 7.97788486 71.5625 11.6875 C72.59503906 12.43386719 73.62757813 13.18023437 74.69140625 13.94921875 C75.45324219 14.62597656 76.21507812 15.30273438 77 16 C77 16.99 77 17.98 77 19 C74.8672736 20.74032871 72.77571942 22.2815143 70.5 23.8125 C69.21159422 24.7008877 67.92383034 25.59020705 66.63671875 26.48046875 C66.01071777 26.91020996 65.3847168 27.33995117 64.73974609 27.78271484 C61.92154348 29.75458661 59.23229445 31.88671709 56.55078125 34.0390625 C55 35 55 35 52 35 C52 30.71 52 26.42 52 22 C36.16 22 20.32 22 4 22 C4 26.62 4 31.24 4 36 C0.27771808 34.51108723 -1.78424289 33.6261264 -4.77734375 31.3203125 C-5.45603516 30.80339844 -6.13472656 30.28648437 -6.83398438 29.75390625 C-7.52814453 29.21636719 -8.22230469 28.67882812 -8.9375 28.125 C-10.32044571 27.06357948 -11.70454227 26.00365657 -13.08984375 24.9453125 C-13.74839355 24.4390332 -14.40694336 23.93275391 -15.08544922 23.41113281 C-16.84735856 22.11250542 -18.6423537 20.95320041 -20.50390625 19.8046875 C-21.32761719 19.20914063 -22.15132812 18.61359375 -23 18 C-23 15 -23 15 -21.6105957 13.60546875 C-20.97210693 13.13753906 -20.33361816 12.66960937 -19.67578125 12.1875 C-18.97646484 11.66929688 -18.27714844 11.15109375 -17.55664062 10.6171875 C-16.81607422 10.08351563 -16.07550781 9.54984375 -15.3125 9 C-14.59126953 8.46632813 -13.87003906 7.93265625 -13.12695312 7.3828125 C-3.07200326 0 -3.07200326 0 0 0 Z " fill="#FBD329" transform="translate(80,116)"/>
<path d="M0 0 C4.51308075 1.8052323 7.95371632 3.91533855 11.8125 6.75 C12.42689941 7.19520996 13.04129883 7.64041992 13.67431641 8.09912109 C18.15185473 11.35197304 22.59372589 14.65123168 27 18 C25.48417379 22.4851844 21.87285895 24.4810724 18.125 27 C14.04713731 29.77462822 10.49062036 32.4931442 7 36 C6.34 36 5.68 36 5 36 C5 31.71 5 27.42 5 23 C-13.48 23 -31.96 23 -51 23 C-51 26.63 -51 30.26 -51 34 C-55.23266783 31.88366609 -58.81352284 29.39963854 -62.625 26.625 C-63.305625 26.14289063 -63.98625 25.66078125 -64.6875 25.1640625 C-65.33976562 24.6896875 -65.99203125 24.2153125 -66.6640625 23.7265625 C-67.55279053 23.08581787 -67.55279053 23.08581787 -68.45947266 22.43212891 C-70.22718637 20.78879949 -71.0478377 19.20095752 -72 17 C-64.97940507 11.01144611 -57.91491117 5.76119414 -50 1 C-49 3 -49 3 -49 12 C-32.83 12 -16.66 12 0 12 C0 8.04 0 4.08 0 0 Z " fill="#FCE746" transform="translate(129,67)"/>
<path d="M0 0 C1.68441639 0.28939312 3.3718127 0.56233326 5.0625 0.8125 C20.12646486 3.51735557 35.31539527 9.61103997 47.1171875 19.453125 C49.1283357 21.17501554 49.1283357 21.17501554 52.125 22.9375 C56.09075388 25.78249735 58.90839589 29.24994066 62 33 C62.74894531 33.87398437 63.49789062 34.74796875 64.26953125 35.6484375 C68.48098607 40.63513524 72.11996801 45.46387822 75.02734375 51.3203125 C75.89741028 53.17783598 75.89741028 53.17783598 78 54 C78.35570102 55.6620366 78.68248075 57.3302484 79 59 C79.69997382 60.92645855 80.40162554 62.85237377 81.12084961 64.77172852 C91.32050992 92.60201241 87.43850653 121.97388266 75.40625 148.515625 C71.91364683 155.46788225 67.73922773 160.97648285 62.33203125 166.5625 C59.98270103 168.92758798 59.98270103 168.92758798 58.11328125 171.47265625 C55.50142155 174.59626665 52.58965881 176.95976933 49.375 179.4375 C48.74964355 179.92049561 48.12428711 180.40349121 47.47998047 180.90112305 C31.71951724 192.92075232 11.10015 201.6381 -9 201 C-9.33 201.99 -9.66 202.98 -10 204 C-10 203.34 -10 202.68 -10 202 C-10.76441406 202.02320313 -11.52882813 202.04640625 -12.31640625 202.0703125 C-25.76775849 202.29692975 -38.98030052 200.32105201 -52 197 C-52 196.34 -52 195.68 -52 195 C-53.12792969 194.77441406 -54.25585938 194.54882812 -55.41796875 194.31640625 C-60.54261474 193.0349625 -64.78231481 190.59105504 -69.3125 187.9375 C-70.89070799 187.02782959 -72.47008688 186.12018678 -74.05078125 185.21484375 C-74.73825439 184.81386475 -75.42572754 184.41288574 -76.1340332 183.99975586 C-78.12985298 182.86266356 -78.12985298 182.86266356 -81 182 C-81 181.01 -81 180.02 -81 179 C-81.58265625 178.731875 -82.1653125 178.46375 -82.765625 178.1875 C-85.02786601 176.98519009 -86.80576318 175.66174087 -88.75 174 C-89.36359375 173.484375 -89.9771875 172.96875 -90.609375 172.4375 C-92 171 -92 171 -92 169 C-92.99 168.67 -93.98 168.34 -95 168 C-95 167.34 -95 166.68 -95 166 C-95.66 166 -96.32 166 -97 166 C-98.2890625 164.5390625 -98.2890625 164.5390625 -99.625 162.625 C-100.07101563 161.99851563 -100.51703125 161.37203125 -100.9765625 160.7265625 C-102 159 -102 159 -102 157 C-102.99 157.33 -103.98 157.66 -105 158 C-104.9175 157.278125 -104.835 156.55625 -104.75 155.8125 C-105.07592896 152.14579924 -106.65895924 150.76668454 -109 148 C-109.351208 146.67126307 -109.68103392 145.33684312 -110 144 C-111.26734604 140.90435148 -112.60366662 137.84315497 -113.94140625 134.77734375 C-115 132 -115 132 -115 129 C-115.66 128.67 -116.32 128.34 -117 128 C-118.7463182 120.75601341 -119.25164681 113.423581 -119 106 C-119.66 106 -120.32 106 -121 106 C-121.02686553 104.02090602 -121.04633375 102.04171029 -121.0625 100.0625 C-121.07410156 98.96035156 -121.08570312 97.85820313 -121.09765625 96.72265625 C-121 94 -121 94 -120 93 C-119.68588862 90.975255 -119.37771917 88.94939285 -119.10107422 86.91918945 C-116.82723649 70.44098153 -111.62439988 57.13776973 -103 43 C-102.19175781 41.63294922 -102.19175781 41.63294922 -101.3671875 40.23828125 C-98.50167312 35.62683871 -95.31957005 32.18595896 -91.125 28.74609375 C-88.89327596 26.9123058 -86.80198917 24.96723011 -84.6875 23 C-66.47668074 6.89878161 -43.98612595 0.53591533 -20.25 -1.4375 C-19.15518311 -1.53071533 -18.06036621 -1.62393066 -16.93237305 -1.7199707 C-10.75782172 -2.13649467 -5.91167104 -1.8079698 0 0 Z M-49 5 C-50.13695313 5.350625 -51.27390625 5.70125 -52.4453125 6.0625 C-78.42789592 15.0781434 -98.27820022 34.76812574 -110.16308594 59.18066406 C-115.81938954 71.47668929 -117.37344412 83.78414654 -117.3125 97.1875 C-117.30686035 98.47744873 -117.3012207 99.76739746 -117.29541016 101.09643555 C-116.99394165 124.71992551 -109.41243099 145.97976224 -94 164 C-93.38382813 164.76183594 -92.76765625 165.52367187 -92.1328125 166.30859375 C-77.29089047 184.07579087 -52.1208094 196.81200665 -29 199 C-0.30215346 200.79461687 27.27502753 194.92409857 49.703125 176.05078125 C69.62608804 158.26242139 82.51119489 135.48858833 84.22314453 108.47949219 C85.13524358 78.95275315 79.5543127 53.85274605 58.98828125 31.6875 C56.41665049 29.01652872 53.82647148 26.40446359 51 24 C50.34 24 49.68 24 49 24 C49 23.34 49 22.68 49 22 C46.65701775 20.30818424 44.33130486 18.76230224 41.875 17.25 C41.14796875 16.80188965 40.4209375 16.3537793 39.671875 15.89208984 C28.06242089 8.88647196 16.15452702 4.94842847 3 2 C2.40026367 1.8242041 1.80052734 1.6484082 1.18261719 1.46728516 C-14.35003366 -1.85816157 -34.05218835 0.27636721 -49 5 Z " fill="#2D2302" transform="translate(124,7)"/>
<path d="M0 0 C0.99061935 0.00081573 0.99061935 0.00081573 2.00125122 0.00164795 C12.70067521 0.04208845 22.26086371 0.90698936 32.375 4.375 C33.01920898 4.59462402 33.66341797 4.81424805 34.32714844 5.04052734 C43.25024384 8.15369618 51.38977714 12.3336381 59.375 17.375 C60.05949219 17.79136719 60.74398437 18.20773438 61.44921875 18.63671875 C63.125 19.6875 63.125 19.6875 65.375 21.375 C65.375 22.035 65.375 22.695 65.375 23.375 C65.93316406 23.60832031 66.49132812 23.84164063 67.06640625 24.08203125 C74.05965103 27.99872164 80.31575492 35.51627555 84.375 42.375 C84.045 43.365 83.715 44.355 83.375 45.375 C82.385 42.9 82.385 42.9 81.375 40.375 C80.715 40.375 80.055 40.375 79.375 40.375 C77.68359375 38.73046875 77.68359375 38.73046875 75.8125 36.5625 C75.19246094 35.85480469 74.57242188 35.14710937 73.93359375 34.41796875 C72.375 32.375 72.375 32.375 71.375 29.375 C70.06096724 28.67105388 68.7229743 28.01154342 67.375 27.375 C64.625 25.375 64.625 25.375 62.375 23.375 C62.375 22.715 62.375 22.055 62.375 21.375 C61.79621094 21.09140625 61.21742188 20.8078125 60.62109375 20.515625 C58.51651919 19.44686714 56.48260834 18.30260557 54.4375 17.125 C45.7144201 12.28203801 37.22418735 8.18068435 27.375 6.375 C26.88 5.88 26.88 5.88 26.375 5.375 C24.70882885 5.33436168 23.04111905 5.332279 21.375 5.375 C22.365 6.365 22.365 6.365 23.375 7.375 C21.77398437 7.3435791 21.77398437 7.3435791 20.140625 7.31152344 C16.10007678 7.23796085 12.05958472 7.19278764 8.01855469 7.15527344 C6.2847288 7.13541802 4.55096745 7.10832427 2.81738281 7.07324219 C-22.67880621 6.57099976 -46.34507704 14.07303659 -65.375 31.4375 C-66.15359375 32.19160156 -66.9321875 32.94570313 -67.734375 33.72265625 C-69.625 35.375 -69.625 35.375 -71.625 35.375 C-71.295 34.385 -70.965 33.395 -70.625 32.375 C-71.285 32.045 -71.945 31.715 -72.625 31.375 C-72.625 32.035 -72.625 32.695 -72.625 33.375 C-75.36455562 36.41895069 -77.80563472 38.81896229 -81.625 40.375 C-81.625 41.035 -81.625 41.695 -81.625 42.375 C-82.285 42.045 -82.945 41.715 -83.625 41.375 C-66.78727759 19.52178581 -45.01823159 5.53059463 -17.71508789 0.77416992 C-11.82287796 0.0130288 -5.93393708 -0.0082703 0 0 Z " fill="#FBF768" transform="translate(107.625,7.625)"/>
<path d="M0 0 C0.33 0 0.66 0 1 0 C1.02694851 1.95825873 1.04637218 3.91662226 1.0625 5.875 C1.07410156 6.96554688 1.08570313 8.05609375 1.09765625 9.1796875 C1 12 1 12 0 14 C0.66 14 1.32 14 2 14 C-0.95181638 26.79120431 -7.30112394 39.19298686 -16 49 C-16.69996094 49.81855469 -17.39992188 50.63710937 -18.12109375 51.48046875 C-35.27651973 71.13339175 -58.7116594 83.93970346 -85 86 C-105.24409929 86.69845068 -105.24409929 86.69845068 -115 85 C-114.34 84.01 -113.68 83.02 -113 82 C-113.66 81.34 -114.32 80.68 -115 80 C-114.13721436 80.01047363 -113.27442871 80.02094727 -112.38549805 80.03173828 C-109.18189479 80.06583983 -105.9783841 80.09090857 -102.7746582 80.10986328 C-101.38855952 80.1199157 -100.00248201 80.1335597 -98.61645508 80.15087891 C-96.6233025 80.17515952 -94.62999467 80.18542031 -92.63671875 80.1953125 C-91.43748779 80.20578613 -90.23825684 80.21625977 -89.00268555 80.22705078 C-85.81837173 80.23308072 -85.81837173 80.23308072 -83 78 C-81.15234375 78.015625 -81.15234375 78.015625 -78.9375 78.25 C-60.98656393 78.56401054 -41.77625731 66.60704907 -29 55 C-28.37996094 54.46117187 -27.75992188 53.92234375 -27.12109375 53.3671875 C-11.93473746 39.34359167 -4.10462408 19.82101365 0 0 Z " fill="#F3D320" transform="translate(203,120)"/>
<path d="M0 0 C0 3.96 0 7.92 0 12 C18.48 12 36.96 12 56 12 C56 8.37 56 4.74 56 1 C61.28187539 4.433219 66.47060346 7.97788486 71.5625 11.6875 C72.59503906 12.43386719 73.62757813 13.18023437 74.69140625 13.94921875 C75.45324219 14.62597656 76.21507812 15.30273438 77 16 C77 16.99 77 17.98 77 19 C74.80487579 20.77926847 72.64926586 22.36642765 70.3125 23.9375 C69.05768434 24.79945885 67.80376278 25.66272089 66.55078125 26.52734375 C65.94572754 26.94097168 65.34067383 27.35459961 64.71728516 27.78076172 C63.15127601 28.89259705 61.65458525 30.10045648 60.16796875 31.31640625 C58 33 58 33 56 33 C56 32.34 56 31.68 56 31 C57.8649811 29.45923412 59.72578451 28.03246762 61.6875 26.625 C65.52530002 23.82279681 69.31173978 20.9971391 73 18 C71.77946141 14.33838422 70.63217696 13.83729526 67.4375 11.8125 C66.61121094 11.28269531 65.78492188 10.75289062 64.93359375 10.20703125 C64.29550781 9.80871094 63.65742188 9.41039063 63 9 C61.00213945 9.8529475 61.00213945 9.8529475 59 11 C58.19471111 13.05000871 58.19471111 13.05000871 58 15 C51.65006173 16.14561614 45.43543722 16.11102792 38.99609375 16.0625 C37.26287621 16.05682007 37.26287621 16.05682007 35.49464417 16.05102539 C30.57735747 16.03478257 25.66015577 16.0067867 20.74291992 15.97949219 C1.84623729 15.80289732 1.84623729 15.80289732 -17 17 C-17 17.99 -17 18.98 -17 20 C-16.41573242 20.27634277 -15.83146484 20.55268555 -15.22949219 20.83740234 C-13.09462946 21.95065424 -11.25967324 23.1695526 -9.328125 24.6015625 C-8.66425781 25.09140625 -8.00039062 25.58125 -7.31640625 26.0859375 C-6.63449219 26.59382813 -5.95257813 27.10171875 -5.25 27.625 C-4.55261719 28.140625 -3.85523437 28.65625 -3.13671875 29.1875 C-1.42244733 30.45559119 0.28905156 31.7274289 2 33 C1.98839844 32.14535156 1.97679688 31.29070312 1.96484375 30.41015625 C1.95582031 29.30542969 1.94679688 28.20070312 1.9375 27.0625 C1.92589844 25.96035156 1.91429688 24.85820312 1.90234375 23.72265625 C2 21 2 21 3 20 C4.50418739 19.90688111 6.01271356 19.88253972 7.51977539 19.88647461 C8.96115623 19.88658791 8.96115623 19.88658791 10.43165588 19.88670349 C11.99882607 19.89444542 11.99882607 19.89444542 13.59765625 19.90234375 C14.66165146 19.9037587 15.72564667 19.90517365 16.82188416 19.90663147 C20.23545083 19.91224936 23.648953 19.92480489 27.0625 19.9375 C29.37044176 19.94251269 31.67838455 19.947076 33.98632812 19.95117188 C39.65757426 19.9622246 45.32878253 19.97898013 51 20 C51 20.66 51 21.32 51 22 C35.49 22 19.98 22 4 22 C4 26.62 4 31.24 4 36 C0.27771808 34.51108723 -1.78424289 33.6261264 -4.77734375 31.3203125 C-5.45603516 30.80339844 -6.13472656 30.28648437 -6.83398438 29.75390625 C-7.52814453 29.21636719 -8.22230469 28.67882812 -8.9375 28.125 C-10.32044571 27.06357948 -11.70454227 26.00365657 -13.08984375 24.9453125 C-13.74839355 24.4390332 -14.40694336 23.93275391 -15.08544922 23.41113281 C-16.84735856 22.11250542 -18.6423537 20.95320041 -20.50390625 19.8046875 C-21.32761719 19.20914063 -22.15132812 18.61359375 -23 18 C-23 15 -23 15 -21.6105957 13.60546875 C-20.97210693 13.13753906 -20.33361816 12.66960937 -19.67578125 12.1875 C-18.97646484 11.66929688 -18.27714844 11.15109375 -17.55664062 10.6171875 C-16.81607422 10.08351563 -16.07550781 9.54984375 -15.3125 9 C-14.59126953 8.46632813 -13.87003906 7.93265625 -13.12695312 7.3828125 C-3.07200326 0 -3.07200326 0 0 0 Z " fill="#F8EE72" transform="translate(80,116)"/>
<path d="M0 0 C0.66 0.33 1.32 0.66 2 1 C2.625 4.0625 2.625 4.0625 3 7 C6.47665095 8.06888524 9.67137478 8.11475767 13.296875 8.09765625 C15.10478516 8.09282227 15.10478516 8.09282227 16.94921875 8.08789062 C18.83060547 8.07532227 18.83060547 8.07532227 20.75 8.0625 C22.65458984 8.05573242 22.65458984 8.05573242 24.59765625 8.04882812 C27.73181836 8.03704556 30.86588541 8.02059416 34 8 C33.34 8.33 32.68 8.66 32 9 C31.67 10.65 31.34 12.3 31 14 C43.87 14.495 43.87 14.495 57 15 C57 15.33 57 15.66 57 16 C38.85 16 20.7 16 2 16 C2 19.63 2 23.26 2 27 C-1.50629759 25.24685121 -4.44692708 23.39505209 -7.625 21.125 C-8.58664063 20.44695312 -9.54828125 19.76890625 -10.5390625 19.0703125 C-12.91363023 17.07266028 -13.89556992 15.83826656 -15 13 C-15.33 12.34 -15.66 11.68 -16 11 C-13 10 -13 10 -11 10 C-9.17270951 8.06469234 -7.53104622 6.00952377 -5.8515625 3.9453125 C-3.9730385 1.97167336 -2.5567499 0.91537959 0 0 Z " fill="#FBE540" transform="translate(76,74)"/>
<path d="M0 0 C3.2112391 0.32391629 4.70633828 0.72547825 7.09765625 2.9609375 C8.07025391 4.15589844 8.07025391 4.15589844 9.0625 5.375 C12.13897802 9.1155099 14.76021054 12.1212846 19.33984375 13.91796875 C22.71489606 15.29078738 25.56292647 17.27984488 28.5625 19.3125 C34.78572582 23.39318367 40.92110571 26.60202456 48 29 C49.0725 29.38027344 50.145 29.76054687 51.25 30.15234375 C65.05845498 34.33356772 79.69104228 33.83790634 94 34 C94 34.33 94 34.66 94 35 C90.20925463 35.88563089 86.71304102 36.11681301 82.82421875 36.09765625 C81.66728516 36.09443359 80.51035156 36.09121094 79.31835938 36.08789062 C78.12017578 36.07951172 76.92199219 36.07113281 75.6875 36.0625 C74.46998047 36.05798828 73.25246094 36.05347656 71.99804688 36.04882812 C68.99864774 36.03706578 65.99934911 36.02062826 63 36 C63 36.99 63 37.98 63 39 C46.47060461 40.65293954 26.34271608 28.09343092 14 18 C6.63263632 11.89532888 6.63263632 11.89532888 4 9 C4 8.01 4 7.02 4 6 C2.70647667 4.30225062 1.37482707 2.63260714 0 1 C0 0.67 0 0.34 0 0 Z " fill="#F4E652" transform="translate(28,165)"/>
<path d="M0 0 C6.01738166 2.3482465 9.04606174 6.13176364 13 11 C13.74894531 11.87527344 14.49789062 12.75054687 15.26953125 13.65234375 C19.48395264 18.63556506 23.12041227 23.4647731 26.02734375 29.3203125 C26.89741028 31.17783598 26.89741028 31.17783598 29 32 C29.35570102 33.6620366 29.68248075 35.3302484 30 37 C30.69997382 38.92645855 31.40162554 40.85237377 32.12084961 42.77172852 C42.32050992 70.60201241 38.43850653 99.97388266 26.40625 126.515625 C22.91364683 133.46788225 18.73922773 138.97648285 13.33203125 144.5625 C10.98270103 146.92758798 10.98270103 146.92758798 9.11328125 149.47265625 C6.50134109 152.59636287 3.58944658 154.95936218 0.375 157.4375 C-0.24818115 157.91977051 -0.8713623 158.40204102 -1.51342773 158.89892578 C-11.31839563 166.38800797 -23.1717281 174.65293599 -36 174 C-32.8565777 171.37040635 -29.85648901 170.09220941 -26 168.75 C-2.30613121 159.86148259 15.646372 141.64871318 26.27734375 118.95703125 C35.62546123 98.04903271 38.21499862 69.63135917 31.3828125 47.58203125 C25.42791296 32.1564864 15.7764841 9.88824205 0 2 C0 1.34 0 0.68 0 0 Z " fill="#281E05" transform="translate(173,29)"/>
<path d="M0 0 C13.60288977 11.05234794 22.3972515 24.23446832 28 40.75 C28.29076416 41.60045898 28.58152832 42.45091797 28.88110352 43.32714844 C31.90258982 52.81514599 32.16425486 62.30162428 32.0625 72.1875 C32.05798828 73.04408203 32.05347656 73.90066406 32.04882812 74.78320312 C32.03725105 76.85550033 32.01932659 78.92776058 32 81 C32.66 81 33.32 81 34 81 C33.4681716 67.98986976 32.88620234 54.99134917 32 42 C37.10271214 49.65406822 36.34757028 58.69738957 36.3125 67.5625 C36.31233887 68.22864319 36.31217773 68.89478638 36.31201172 69.58111572 C36.29546543 79.38331482 35.77875312 88.57208763 33 98 C32.34 98 31.68 98 31 98 C31 94.04 31 90.08 31 86 C30.8040625 87.02996094 30.608125 88.05992188 30.40625 89.12109375 C25.51123335 113.11264832 12.57402792 134.46212301 -8.0859375 148.24609375 C-20.12925029 155.49468282 -34.63876967 163.58542595 -49 163 C-45.54330201 161.03207787 -42.11206746 160.26178373 -38.25 159.375 C-16.61977914 153.97947643 4.52491837 139.20652203 16.15039062 120.11035156 C28.34483139 98.4871094 33.35876729 71.34781878 27 47 C22.33758621 30.47922056 14.46302969 16.29381458 2.16015625 4.2109375 C0 2 0 2 0 0 Z " fill="#F4F067" transform="translate(172,36)"/>
<path d="M0 0 C1.76692196 0.01005961 3.53384952 0.01918014 5.30078125 0.02734375 C9.57566254 0.04909874 13.85026707 0.08346051 18.125 0.125 C18.125 1.115 18.125 2.105 18.125 3.125 C20.435 3.455 22.745 3.785 25.125 4.125 C25.125 4.455 25.125 4.785 25.125 5.125 C12.255 5.455 -0.615 5.785 -13.875 6.125 C-14.205 10.085 -14.535 14.045 -14.875 18.125 C-18.64448203 16.24025898 -21.598546 14.17369352 -24.9375 11.625 C-27.88295724 9.3822291 -30.79446818 7.17868788 -33.875 5.125 C-33.875 4.135 -33.875 3.145 -33.875 2.125 C-22.5116551 0.04293288 -11.50931252 -0.1152889 0 0 Z " fill="#FBCD23" transform="translate(96.875,130.875)"/>
<path d="M0 0 C0.33 0 0.66 0 1 0 C1.02694851 1.95825873 1.04637218 3.91662226 1.0625 5.875 C1.07410156 6.96554688 1.08570313 8.05609375 1.09765625 9.1796875 C1 12 1 12 0 14 C0.66 14 1.32 14 2 14 C-0.95181638 26.79120431 -7.30112394 39.19298686 -16 49 C-16.69996094 49.81855469 -17.39992187 50.63710937 -18.12109375 51.48046875 C-25.51849708 59.95479042 -33.58733031 68.29559914 -44 73 C-44.66 72.67 -45.32 72.34 -46 72 C-45.030625 71.443125 -44.06125 70.88625 -43.0625 70.3125 C-39.78166778 68.38616421 -39.78166778 68.38616421 -39.59765625 65.59765625 C-38.7884788 62.08064313 -37.25731497 61.22360395 -34.375 59.125 C-14.96514757 44.27893723 -4.87978359 23.56421814 0 0 Z " fill="#F7D421" transform="translate(203,120)"/>
<path d="M0 0 C14.41782504 -2.37819794 14.41782504 -2.37819794 20.29248047 1.52197266 C26.01182278 6.61654528 30.76167052 12.64250578 35 19 C19.32988021 20.93601269 19.32988021 20.93601269 13.88867188 17.77246094 C10.19947682 14.747321 7.19738953 11.19484999 4.24267578 7.46630859 C2.70291326 5.64944932 0.98792889 4.30178795 -1 3 C-0.67 2.01 -0.34 1.02 0 0 Z " fill="#FBF955" transform="translate(89,101)"/>
<path d="M0 0 C0.55945313 0.32097656 1.11890625 0.64195313 1.6953125 0.97265625 C0.71433594 1.19179687 -0.26664062 1.4109375 -1.27734375 1.63671875 C-20.659058 6.12004205 -36.99142544 13.35136766 -51.4140625 27.3203125 C-53.3046875 28.97265625 -53.3046875 28.97265625 -55.3046875 28.97265625 C-54.9746875 27.98265625 -54.6446875 26.99265625 -54.3046875 25.97265625 C-54.9646875 25.64265625 -55.6246875 25.31265625 -56.3046875 24.97265625 C-56.3046875 25.63265625 -56.3046875 26.29265625 -56.3046875 26.97265625 C-59.04424312 30.01660694 -61.48532222 32.41661854 -65.3046875 33.97265625 C-65.3046875 34.63265625 -65.3046875 35.29265625 -65.3046875 35.97265625 C-65.9646875 35.64265625 -66.6246875 35.31265625 -67.3046875 34.97265625 C-57.00615933 21.6064814 -45.86574532 11.04115672 -30.3046875 3.97265625 C-29.3146875 3.97265625 -28.3246875 3.97265625 -27.3046875 3.97265625 C-25.12641962 3.17013651 -22.96136522 2.33151021 -20.8046875 1.47265625 C-14.12619248 -1.04721873 -6.8232421 -3.0415469 0 0 Z " fill="#F9F152" transform="translate(91.3046875,14.02734375)"/>
<path d="M0 0 C4.51281449 1.8051258 7.95430829 3.91472642 11.8125 6.75 C12.42689941 7.19666016 13.04129883 7.64332031 13.67431641 8.10351562 C14.89384731 8.9917326 16.11167189 9.88229793 17.32763672 10.77539062 C18.77448922 11.83486685 20.2320069 12.87974949 21.69140625 13.921875 C22.41199219 14.44265625 23.13257813 14.9634375 23.875 15.5 C24.49117188 15.9434375 25.10734375 16.386875 25.7421875 16.84375 C26.15726562 17.2253125 26.57234375 17.606875 27 18 C27 18.66 27 19.32 27 20 C26.34 20 25.68 20 25 20 C25 19.34 25 18.68 25 18 C24.34386719 17.79503906 23.68773437 17.59007813 23.01171875 17.37890625 C18.82766412 15.46324959 15.43960435 12.74399251 11.8125 9.9375 C10.38251533 8.84113597 8.95157083 7.74602235 7.51953125 6.65234375 C6.89151611 6.16757568 6.26350098 5.68280762 5.61645508 5.18334961 C3.99792431 3.92917771 3.99792431 3.92917771 2 3 C2 6.63 2 10.26 2 14 C-5.22655228 14.04932541 -12.45300724 14.08568408 -19.6796875 14.10986328 C-22.13966579 14.11993983 -24.59963206 14.13360131 -27.05957031 14.15087891 C-30.58922285 14.17505461 -34.11871747 14.1864664 -37.6484375 14.1953125 C-38.75367767 14.20563507 -39.85891785 14.21595764 -40.99765015 14.22659302 C-42.52901108 14.22681961 -42.52901108 14.22681961 -44.09130859 14.22705078 C-44.99287689 14.231492 -45.89444519 14.23593323 -46.82333374 14.24050903 C-49 14 -49 14 -51 12 C-51.69748583 10.68252676 -52.36959957 9.35085807 -53 8 C-57.49029489 10.67279458 -60.43442712 13.45120471 -63.60546875 17.609375 C-65 19 -65 19 -68 19 C-66.68 20.32 -65.36 21.64 -64 23 C-67.68754757 22.50168276 -69.60490662 21.89932357 -72 19 C-70.5454414 15.4353071 -68.75066937 13.78048195 -65.6484375 11.546875 C-64.79765625 10.928125 -63.946875 10.309375 -63.0703125 9.671875 C-62.18085937 9.03765625 -61.29140625 8.4034375 -60.375 7.75 C-59.4778125 7.1003125 -58.580625 6.450625 -57.65625 5.78125 C-55.4427492 4.1799941 -53.22397903 2.58665399 -51 1 C-49 3 -49 3 -49 12 C-32.83 12 -16.66 12 0 12 C0 8.04 0 4.08 0 0 Z " fill="#E2D55D" transform="translate(129,67)"/>
<path d="M0 0 C1.68441639 0.28939312 3.3718127 0.56233326 5.0625 0.8125 C21.03058765 3.67969806 36.72253303 10.31405653 49 21 C45.04935681 21 43.4772938 19.54115276 40.1875 17.375 C28.52134937 9.97511158 16.36696781 5.99604451 3 3 C2.40026367 2.8242041 1.80052734 2.6484082 1.18261719 2.46728516 C-14.35003366 -0.85816157 -34.05218835 1.27636721 -49 6 C-50.13695312 6.350625 -51.27390625 6.70125 -52.4453125 7.0625 C-64.52515481 11.25405974 -75.41468849 18.25461139 -85.14453125 26.46875 C-87 28 -87 28 -89 29 C-83.77058032 17.31512445 -67.39423409 10.38437704 -56.12792969 5.80224609 C-44.50756804 1.42127909 -32.58105019 -0.4122997 -20.25 -1.4375 C-19.15518311 -1.53071533 -18.06036621 -1.62393066 -16.93237305 -1.7199707 C-10.75782172 -2.13649467 -5.91167104 -1.8079698 0 0 Z " fill="#92740C" transform="translate(124,7)"/>
<path d="M0 0 C1.67828373 2.5174256 2.44963397 4.05014444 3.296875 6.84375 C3.53003418 7.59011719 3.76319336 8.33648437 4.00341797 9.10546875 C4.37297607 10.29076172 4.37297607 10.29076172 4.75 11.5 C10.3263571 28.68323877 20.19973771 40.6232758 33 53 C28.92412524 53 28.01409161 51.74008328 25 49 C23.17843558 46.89757763 21.39488396 44.77465251 19.6484375 42.609375 C18.02619756 40.65071097 18.02619756 40.65071097 15 41 C16.65 43.31 18.3 45.62 20 48 C9.44631083 43.56371473 4.47463359 29.77907013 0 20 C-0.63808594 18.61748047 -0.63808594 18.61748047 -1.2890625 17.20703125 C-2 15 -2 15 -1 12 C-0.16209211 13.78953185 0.67019396 15.58169695 1.5 17.375 C1.9640625 18.37273437 2.428125 19.37046875 2.90625 20.3984375 C4 23 4 23 4 25 C4.99 25 5.98 25 7 25 C6.36771484 23.42412109 6.36771484 23.42412109 5.72265625 21.81640625 C2.85702376 14.52648713 0.28281855 7.91891952 0 0 Z " fill="#F6E954" transform="translate(14,125)"/>
<path d="M0 0 C0.33 0 0.66 0 1 0 C1.01981934 0.91813477 1.03963867 1.83626953 1.06005859 2.78222656 C1.13826955 6.19671825 1.22496584 9.61077702 1.31738281 13.02490234 C1.35560666 14.50105536 1.39047103 15.97729943 1.421875 17.45361328 C1.46766986 19.57878094 1.52563837 21.70332542 1.5859375 23.828125 C1.6173584 25.1059082 1.6487793 26.38369141 1.68115234 27.70019531 C1.98137078 30.80720321 2.52954353 32.33944928 4 35 C4.103125 36.299375 4.20625 37.59875 4.3125 38.9375 C4.78711309 44.42293208 6.83598695 49.1338384 8.94140625 54.1796875 C10 57 10 57 10 60 C9.01 60 8.02 60 7 60 C5.35 56.04 3.7 52.08 2 48 C1.34 48 0.68 48 0 48 C-2.98692362 35.93630849 -3.23596273 23.37493424 -3 11 C-2.34 11 -1.68 11 -1 11 C-1.01160156 10.28972656 -1.02320313 9.57945313 -1.03515625 8.84765625 C-1.04417969 7.92855469 -1.05320312 7.00945312 -1.0625 6.0625 C-1.07410156 5.14597656 -1.08570313 4.22945313 -1.09765625 3.28515625 C-1 1 -1 1 0 0 Z " fill="#F9DA28" transform="translate(11,90)"/>
<path d="M0 0 C0.99 0.33 1.98 0.66 3 1 C1.67357536 4.81849516 0.03662043 7.35284135 -2.625 10.375 C-6.10582475 14.60534541 -8.81901016 18.93070901 -11.375 23.75 C-11.87507568 24.68851807 -11.87507568 24.68851807 -12.38525391 25.64599609 C-13.86261092 28.50282668 -15.0908332 31.27704126 -16.09375 34.3359375 C-17.14276418 37.41967747 -18.25050354 38.35030213 -21 40 C-22.56260189 33.68345056 -21.27239971 30.34562182 -18.1875 24.75 C-17.63352539 23.69039062 -17.63352539 23.69039062 -17.06835938 22.609375 C-15.49476774 19.62604867 -13.87389261 16.81083892 -12 14 C-12 13.01 -12 12.02 -12 11 C-11.01 11 -10.02 11 -9 11 C-9 10.34 -9 9.68 -9 9 C-6.26044438 5.95604931 -3.81936528 3.55603771 0 2 C0 1.34 0 0.68 0 0 Z " fill="#F8ED4A" transform="translate(35,39)"/>
<path d="M0 0 C3.3 0.33 6.6 0.66 10 1 C8.68 1.33 7.36 1.66 6 2 C6 2.99 6 3.98 6 5 C6.87640137 5.41451416 6.87640137 5.41451416 7.77050781 5.83740234 C9.90537054 6.95065424 11.74032676 8.1695526 13.671875 9.6015625 C14.33574219 10.09140625 14.99960938 10.58125 15.68359375 11.0859375 C16.36550781 11.59382812 17.04742187 12.10171875 17.75 12.625 C18.44738281 13.140625 19.14476563 13.65625 19.86328125 14.1875 C21.57755267 15.45559119 23.28905156 16.7274289 25 18 C24.98839844 17.14535156 24.97679688 16.29070312 24.96484375 15.41015625 C24.95582031 14.30542969 24.94679688 13.20070312 24.9375 12.0625 C24.92589844 10.96035156 24.91429688 9.85820312 24.90234375 8.72265625 C25 6 25 6 26 5 C27.50418739 4.90688111 29.01271356 4.88253972 30.51977539 4.88647461 C31.96115623 4.88658791 31.96115623 4.88658791 33.43165588 4.88670349 C34.99882607 4.89444542 34.99882607 4.89444542 36.59765625 4.90234375 C37.66165146 4.9037587 38.72564667 4.90517365 39.82188416 4.90663147 C43.23545083 4.91224936 46.648953 4.92480489 50.0625 4.9375 C52.37044176 4.94251269 54.67838455 4.947076 56.98632812 4.95117188 C62.65757426 4.9622246 68.32878253 4.97898013 74 5 C74 5.66 74 6.32 74 7 C58.49 7 42.98 7 27 7 C27 11.62 27 16.24 27 21 C23.27771808 19.51108723 21.21575711 18.6261264 18.22265625 16.3203125 C17.54396484 15.80339844 16.86527344 15.28648437 16.16601562 14.75390625 C15.47185547 14.21636719 14.77769531 13.67882812 14.0625 13.125 C12.67955429 12.06357948 11.29545773 11.00365657 9.91015625 9.9453125 C9.25160645 9.4390332 8.59305664 8.93275391 7.91455078 8.41113281 C6.15264144 7.11250542 4.3576463 5.95320041 2.49609375 4.8046875 C1.67238281 4.20914063 0.84867188 3.61359375 0 3 C0 2.01 0 1.02 0 0 Z " fill="#FCF642" transform="translate(57,131)"/>
<path d="M0 0 C4.15773791 3.26411857 7.69150028 6.88138166 11 11 C11 11.66 11 12.32 11 13 C6.38 13 1.76 13 -3 13 C-3.33 12.01 -3.66 11.02 -4 10 C-5.32407669 9.31513275 -6.65909241 8.65129797 -8 8 C-10.25 6.0625 -10.25 6.0625 -12 4 C-12 3.01 -12 2.02 -12 1 C-7.72514627 -0.42495124 -4.42425321 -1.27534194 0 0 Z " fill="#FCDB31" transform="translate(108,105)"/>
<path d="M0 0 C0 3.80196862 -0.89536327 4.22027411 -3.5 6.875 C-20.60423224 25.5506458 -26.33591187 47.87222062 -26.6730957 72.44213867 C-26.69073975 73.52213135 -26.70838379 74.60212402 -26.7265625 75.71484375 C-26.73252441 76.68542725 -26.73848633 77.65601074 -26.74462891 78.65600586 C-27 81 -27 81 -29 83 C-29 81.35 -29 79.7 -29 78 C-29.66 78 -30.32 78 -31 78 C-31.02686553 76.02090602 -31.04633375 74.04171029 -31.0625 72.0625 C-31.07410156 70.96035156 -31.08570313 69.85820313 -31.09765625 68.72265625 C-31 66 -31 66 -30 65 C-29.68588862 62.975255 -29.37771917 60.94939285 -29.10107422 58.91918945 C-26.82801931 42.44665452 -21.63301662 29.1289315 -13 15 C-12.44957031 14.07703125 -11.89914063 13.1540625 -11.33203125 12.203125 C-8.1740037 7.15705418 -4.69479421 3.66193948 0 0 Z " fill="#574408" transform="translate(34,35)"/>
<path d="M0 0 C3.6310354 3.19115226 5.60104735 6.75040618 7.625 11.0625 C9.27211104 14.50226422 10.87770659 17.81655989 13 21 C13.3161732 23.61290307 13.51607241 26.12720566 13.625 28.75 C13.66294678 29.52263184 13.70089355 30.29526367 13.73999023 31.09130859 C14.18715427 41.38723511 14.08955325 51.6972433 14 62 C13.34 62 12.68 62 12 62 C11.97607178 61.20118408 11.95214355 60.40236816 11.92749023 59.5793457 C11.31024177 41.90981619 10.65217642 23.75362736 1.2890625 8.1484375 C-0.3976188 5.337302 -0.22439112 3.2162727 0 0 Z " fill="#F9E131" transform="translate(192,55)"/>
<path d="M0 0 C3.71420832 0.64565609 7.0373569 1.72863863 10.57421875 3.015625 C19.53541724 5.81102354 28.49654591 5.67466647 37.8125 5.75 C39.58401267 5.77822481 41.35549893 5.80816106 43.12695312 5.83984375 C47.4179202 5.91292685 51.70857661 5.96296919 56 6 C56 6.33 56 6.66 56 7 C52.20925463 7.88563089 48.71304102 8.11681301 44.82421875 8.09765625 C43.66728516 8.09443359 42.51035156 8.09121094 41.31835938 8.08789062 C40.12017578 8.07951172 38.92199219 8.07113281 37.6875 8.0625 C36.46998047 8.05798828 35.25246094 8.05347656 33.99804688 8.04882812 C30.99864774 8.03706578 27.99934911 8.02062826 25 8 C25 8.99 25 9.98 25 11 C16.96448307 11.80355169 10.36623855 8.89683539 3 6 C3.33 5.01 3.66 4.02 4 3 C2.35 2.67 0.7 2.34 -1 2 C-0.67 1.34 -0.34 0.68 0 0 Z " fill="#EBDD49" transform="translate(66,193)"/>
<path d="M0 0 C-0.08378906 0.84304687 -0.16757813 1.68609375 -0.25390625 2.5546875 C-0.35574219 3.65039062 -0.45757812 4.74609375 -0.5625 5.875 C-0.66691406 6.96554688 -0.77132812 8.05609375 -0.87890625 9.1796875 C-1.22639404 11.95152023 -1.22639404 11.95152023 0 14 C-2.72876308 14.33695862 -5.45793163 14.66968429 -8.1875 15 C-9.34088867 15.14308594 -9.34088867 15.14308594 -10.51757812 15.2890625 C-14.36928811 15.75192894 -18.11170851 16.12467468 -22 16 C-7 0 -7 0 0 0 Z " fill="#FDF25E" transform="translate(80,116)"/>
<path d="M0 0 C0.55945313 0.32097656 1.11890625 0.64195313 1.6953125 0.97265625 C0.71433594 1.19179687 -0.26664063 1.4109375 -1.27734375 1.63671875 C-13.96930844 4.57831296 -25.76083214 8.84734524 -37.3046875 14.97265625 C-37.3046875 10.24616572 -36.41343309 9.34786575 -33.3046875 5.97265625 C-30.3046875 3.97265625 -30.3046875 3.97265625 -27.3046875 3.97265625 C-25.12641962 3.17013651 -22.96136522 2.33151021 -20.8046875 1.47265625 C-14.12619248 -1.04721873 -6.8232421 -3.0415469 0 0 Z " fill="#F8F154" transform="translate(91.3046875,14.02734375)"/>
<path d="M0 0 C6.01738166 2.3482465 9.04606174 6.13176364 13 11 C13.74894531 11.87527344 14.49789062 12.75054687 15.26953125 13.65234375 C19.48395264 18.63556506 23.12041227 23.4647731 26.02734375 29.3203125 C26.89741028 31.17783598 26.89741028 31.17783598 29 32 C29.35570102 33.6620366 29.68248075 35.3302484 30 37 C30.7002251 38.92715014 31.40205859 40.85377588 32.12060547 42.77416992 C36.91197341 55.82943039 38.18741694 69.14988789 38 83 C36.126708 81.42276804 35.10051972 80.52388668 34.63110352 78.07739258 C34.63037842 77.35704834 34.62965332 76.6367041 34.62890625 75.89453125 C34.614646 75.08411377 34.60038574 74.27369629 34.58569336 73.4387207 C34.57803955 72.57206787 34.57038574 71.70541504 34.5625 70.8125 C33.72929197 44.97376746 22.4893419 22.69614966 4.03125 4.79296875 C2.12448877 2.95531976 2.12448877 2.95531976 0 2 C0 1.34 0 0.68 0 0 Z " fill="#3C2D08" transform="translate(173,29)"/>
<path d="M0 0 C18.48 0 36.96 0 56 0 C56 4.62 56 9.24 56 14 C55.34 13.67 54.68 13.34 54 13 C54 9.37 54 5.74 54 2 C36.84 2 19.68 2 2 2 C2 4.97 2 7.94 2 11 C0.35 11.33 -1.3 11.66 -3 12 C-3.66 10.68 -4.32 9.36 -5 8 C-2.525 9.485 -2.525 9.485 0 11 C0 7.37 0 3.74 0 0 Z " fill="#070502" transform="translate(78,90)"/>
<path d="M0 0 C15.84 0 31.68 0 48 0 C48 4.29 48 8.58 48 13 C49.98 12.67 51.96 12.34 54 12 C52.75 13.5 52.75 13.5 51 15 C49.68 15 48.36 15 47 15 C46 12 46 12 46 2 C31.15 2 16.3 2 1 2 C1.33 2.99 1.66 3.98 2 5 C2.06802967 6.72795352 2.08495645 8.45835365 2.0625 10.1875 C2.05347656 11.08855469 2.04445313 11.98960937 2.03515625 12.91796875 C2.02355469 13.60503906 2.01195313 14.29210937 2 15 C1.34 15 0.68 15 0 15 C0 10.05 0 5.1 0 0 Z " fill="#090501" transform="translate(84,138)"/>
<path d="M0 0 C2.27144155 3.40716232 2.58362779 5.66790867 3.25 9.6875 C5.82056943 23.68758595 11.27847618 37.42273241 19.8125 48.875 C21.85727836 51.79611194 22.68203941 53.50243348 23 57 C22.34 57 21.68 57 21 57 C19.7109375 55.5390625 19.7109375 55.5390625 18.375 53.625 C17.92898437 52.99851563 17.48296875 52.37203125 17.0234375 51.7265625 C16 50 16 50 16 48 C14.515 48.495 14.515 48.495 13 49 C13.12375 47.9171875 13.12375 47.9171875 13.25 46.8125 C12.92407104 43.14579924 11.34104076 41.76668454 9 39 C8.648792 37.67126307 8.31896608 36.33684312 8 35 C6.73265396 31.90435148 5.39633338 28.84315497 4.05859375 25.77734375 C3 23 3 23 3 20 C2.34 19.67 1.68 19.34 1 19 C0.49490781 16.16734847 0.1116848 13.41751157 -0.1875 10.5625 C-0.28224609 9.77294922 -0.37699219 8.98339844 -0.47460938 8.16992188 C-1.13378158 2.26756315 -1.13378158 2.26756315 0 0 Z " fill="#382D07" transform="translate(6,116)"/>
<path d="M0 0 C0.66 0 1.32 0 2 0 C-0.1214658 10.56170608 -13.35949668 18.07223346 -21.67578125 23.86328125 C-29.53054345 28.83839249 -38.54152265 33.48141951 -48 33 C-44.8565777 30.37040635 -41.85648901 29.09220941 -38 27.75 C-25.05813262 22.89498816 -6.5139029 13.0278058 0 0 Z " fill="#251B04" transform="translate(185,170)"/>
<path d="M0 0 C2 2 2 2 2 11 C19.16 11 36.32 11 54 11 C54 8.03 54 5.06 54 2 C54.33 2 54.66 2 55 2 C55.495 7.445 55.495 7.445 56 13 C37.52 13 19.04 13 0 13 C0 8.71 0 4.42 0 0 Z " fill="#040300" transform="translate(80,115)"/>
<path d="M0 0 C3.17443793 0.32459591 4.68049932 0.69650513 7.02734375 2.92578125 C7.97287109 4.10720703 7.97287109 4.10720703 8.9375 5.3125 C11.29430756 8.12993598 13.36938547 10.49844325 16.5 12.4375 C17.7375 13.2109375 17.7375 13.2109375 19 14 C19 14.66 19 15.32 19 16 C20.65 16.66 22.3 17.32 24 18 C23.34 19.32 22.68 20.64 22 22 C14.48846177 19.6526443 8.55139718 14.25817112 4 8 C4 7.34 4 6.68 4 6 C2.68678142 4.3174387 1.35386936 2.65002828 0 1 C0 0.67 0 0.34 0 0 Z " fill="#FAD521" transform="translate(28,165)"/>
<path d="M0 0 C4.51281449 1.8051258 7.95430829 3.91472642 11.8125 6.75 C12.42689941 7.19666016 13.04129883 7.64332031 13.67431641 8.10351562 C14.89384731 8.9917326 16.11167189 9.88229793 17.32763672 10.77539062 C18.77448922 11.83486685 20.2320069 12.87974949 21.69140625 13.921875 C22.41199219 14.44265625 23.13257813 14.9634375 23.875 15.5 C24.49117188 15.9434375 25.10734375 16.386875 25.7421875 16.84375 C26.15726562 17.2253125 26.57234375 17.606875 27 18 C27 18.66 27 19.32 27 20 C26.34 20 25.68 20 25 20 C25 19.34 25 18.68 25 18 C24.34386719 17.79503906 23.68773437 17.59007813 23.01171875 17.37890625 C18.82766412 15.46324959 15.43960435 12.74399251 11.8125 9.9375 C10.38251533 8.84113597 8.95157083 7.74602235 7.51953125 6.65234375 C6.89151611 6.16757568 6.26350098 5.68280762 5.61645508 5.18334961 C3.99792431 3.92917771 3.99792431 3.92917771 2 3 C2 6.63 2 10.26 2 14 C-14.83 14 -31.66 14 -49 14 C-49 13.67 -49 13.34 -49 13 C-32.83 13 -16.66 13 0 13 C0 8.71 0 4.42 0 0 Z " fill="#F8F6AD" transform="translate(129,67)"/>
<path d="M0 0 C5.10271214 7.65406822 4.34757028 16.69738957 4.3125 25.5625 C4.31233887 26.22864319 4.31217773 26.89478638 4.31201172 27.58111572 C4.29546543 37.38331482 3.77875312 46.57208763 1 56 C0.34 56 -0.32 56 -1 56 C-1 49.4 -1 42.8 -1 36 C-0.67 36.99 -0.34 37.98 0 39 C0.66 39 1.32 39 2 39 C1.4681716 25.98986976 0.88620234 12.99134917 0 0 Z " fill="#F8E539" transform="translate(204,78)"/>
<path d="M0 0 C0.66 0.33 1.32 0.66 2 1 C1.52949219 1.78503906 1.05898438 2.57007813 0.57421875 3.37890625 C-6.05412982 13.4726469 -6.05412982 13.4726469 -8 25 C-7.01 24.34 -6.02 23.68 -5 23 C-5.59015185 28.50808397 -6.56663769 33.64878069 -8 39 C-8.33 39 -8.66 39 -9 39 C-8.67 35.37 -8.34 31.74 -8 28 C-8.66 28 -9.32 28 -10 28 C-10.99 32.62 -11.98 37.24 -13 42 C-13.33 42 -13.66 42 -14 42 C-14.83942504 27.72977424 -9.21297897 11.08436532 0 0 Z " fill="#F8F362" transform="translate(22,52)"/>
<path d="M0 0 C-0.33 0.66 -0.66 1.32 -1 2 C-3.34845584 2.65301451 -5.61140473 3.17618843 -8 3.625 C-9.01525757 3.82283081 -9.01525757 3.82283081 -10.05102539 4.0246582 C-15.13971594 4.96372587 -19.84724652 5.27119755 -25 5 C-25.33 5.99 -25.66 6.98 -26 8 C-26 7.34 -26 6.68 -26 6 C-30.29 6 -34.58 6 -39 6 C-39.33 5.01 -39.66 4.02 -40 3 C-38.88927124 2.92483154 -38.88927124 2.92483154 -37.75610352 2.84814453 C-34.35770903 2.61413845 -30.96014452 2.36964501 -27.5625 2.125 C-25.81549805 2.00705078 -25.81549805 2.00705078 -24.03320312 1.88671875 C-16.66380348 1.34698807 -6.97186248 -2.2489879 0 0 Z " fill="#3E2504" transform="translate(140,203)"/>
<path d="M0 0 C1.85625 0.6496875 1.85625 0.6496875 3.75 1.3125 C16.86747634 5.66446398 30.24143221 7.9708158 44 9 C44 9.33 44 9.66 44 10 C31.8799988 10.33830522 20.75950734 10.26558981 9 7 C7.66731491 6.66408432 6.3342691 6.32956767 5 6 C5 5.34 5 4.68 5 4 C2.525 3.01 2.525 3.01 0 2 C0 1.34 0 0.68 0 0 Z " fill="#1D1203" transform="translate(67,198)"/>
<path d="M0 0 C5.29479477 3.40952694 10.47258205 6.97932633 15.5625 10.6875 C16.59503906 11.43386719 17.62757813 12.18023437 18.69140625 12.94921875 C19.45324219 13.62597656 20.21507812 14.30273438 21 15 C21 15.99 21 16.98 21 18 C18.80487579 19.77926847 16.64926586 21.36642765 14.3125 22.9375 C13.05768434 23.79945885 11.80376278 24.66272089 10.55078125 25.52734375 C9.64320068 26.14778564 9.64320068 26.14778564 8.71728516 26.78076172 C7.15127601 27.89259705 5.65458525 29.10045648 4.16796875 30.31640625 C2 32 2 32 0 32 C0 31.34 0 30.68 0 30 C1.8649811 28.45923412 3.72578451 27.03246762 5.6875 25.625 C9.52530002 22.82279681 13.31173978 19.9971391 17 17 C15.70919469 13.12758406 14.00266064 12.31841698 10.6875 10 C9.72199219 9.319375 8.75648438 8.63875 7.76171875 7.9375 C6.85035156 7.298125 5.93898437 6.65875 5 6 C3.66215428 5.00604497 2.32687625 4.00855202 1 3 C1 4.65 1 6.3 1 8 C0.67 8 0.34 8 0 8 C0 5.36 0 2.72 0 0 Z " fill="#F7EE45" transform="translate(136,117)"/>
<path d="M0 0 C9.9 0.33 19.8 0.66 30 1 C29.67 1.99 29.34 2.98 29 4 C19.43 4.33 9.86 4.66 0 5 C0.66 4.01 1.32 3.02 2 2 C1.34 1.34 0.68 0.68 0 0 Z " fill="#F7C212" transform="translate(88,200)"/>
<path d="M0 0 C-1.34191406 0.81791016 -1.34191406 0.81791016 -2.7109375 1.65234375 C-12.996629 8.0247057 -21.87151694 14.98831582 -29.52734375 24.46875 C-31 26 -31 26 -34 27 C-34 27.66 -34 28.32 -34 29 C-34.66 28.67 -35.32 28.34 -36 28 C-28.30497055 18.01283412 -20.63430177 9.85860505 -10 3 C-9.31164062 2.55140625 -8.62328125 2.1028125 -7.9140625 1.640625 C-3.40722222 -1.13574074 -3.40722222 -1.13574074 0 0 Z " fill="#F6F37F" transform="translate(60,21)"/>
<path d="M0 0 C0.66 0 1.32 0 2 0 C2 1.65 2 3.3 2 5 C2.66 5 3.32 5 4 5 C7.41093852 11.82187703 6.12394618 21.6947386 6.0625 29.125 C6.05798828 30.176875 6.05347656 31.22875 6.04882812 32.3125 C6.03718011 34.87506221 6.02082553 37.43749877 6 40 C5.34 40 4.68 40 4 40 C3.9498877 39.1435791 3.89977539 38.2871582 3.84814453 37.40478516 C3.65610263 34.18013596 3.45776548 30.95594832 3.25537109 27.73193359 C3.16957415 26.34536509 3.08617555 24.95864575 3.00537109 23.57177734 C2.53833564 15.58604762 1.89349452 7.79469217 0 0 Z " fill="#F9D11E" transform="translate(200,77)"/>
<path d="M0 0 C0.845625 0.28875 1.69125 0.5775 2.5625 0.875 C2.5625 1.865 2.5625 2.855 2.5625 3.875 C2.8925 4.865 3.2225 5.855 3.5625 6.875 C2.96824219 6.69324219 2.37398437 6.51148438 1.76171875 6.32421875 C-4.60836777 4.39238847 -11.00808358 2.59847474 -17.4375 0.875 C-17.4375 -0.115 -17.4375 -1.105 -17.4375 -2.125 C-11.81269017 -4.93740491 -5.53819582 -1.81250045 0 0 Z " fill="#FAF152" transform="translate(144.4375,15.125)"/>
<path d="M0 0 C3.33466003 0.56391721 4.59569064 1.40722952 6.6640625 4.0390625 C9.21504701 6.72490082 10.8205513 7.43708546 14.5234375 7.5859375 C16.14167155 7.54646838 17.759407 7.47549143 19.375 7.375 C20.20644531 7.34792969 21.03789063 7.32085937 21.89453125 7.29296875 C23.93081888 7.22275194 25.96575833 7.11514575 28 7 C26.68 5.68 25.36 4.36 24 3 C24.33 2.34 24.66 1.68 25 1 C26.98 2.98 28.96 4.96 31 7 C30.67 7.99 30.34 8.98 30 10 C26.72924117 10.0580476 23.45861476 10.09361165 20.1875 10.125 C18.7943457 10.15013672 18.7943457 10.15013672 17.37304688 10.17578125 C16.48037109 10.18222656 15.58769531 10.18867187 14.66796875 10.1953125 C13.84578857 10.20578613 13.0236084 10.21625977 12.17651367 10.22705078 C10 10 10 10 7 8 C7 7.34 7 6.68 7 6 C5.68 5.34 4.36 4.68 3 4 C3 3.34 3 2.68 3 2 C2.01 1.67 1.02 1.34 0 1 C0 0.67 0 0.34 0 0 Z " fill="#1F1302" transform="translate(95,112)"/>
<path d="M0 0 C6.01738166 2.3482465 9.04606174 6.13176364 13 11 C13.74894531 11.87527344 14.49789062 12.75054687 15.26953125 13.65234375 C19.48395264 18.63556506 23.12041227 23.4647731 26.02734375 29.3203125 C26.89741028 31.17783598 26.89741028 31.17783598 29 32 C29 33.98 29 35.96 29 38 C25.89828116 35.33729367 24.2222406 31.97808345 22.3125 28.4375 C17.16935301 19.19844235 9.74388977 6.87194488 0 2 C0 1.34 0 0.68 0 0 Z " fill="#715A0A" transform="translate(173,29)"/>
<path d="M0 0 C14.41782504 -2.37819794 14.41782504 -2.37819794 20.29248047 1.52197266 C26.01182278 6.61654528 30.76167052 12.64250578 35 19 C30.70402861 17.35009794 27.99482354 14.18257193 24.875 10.9375 C21.30446634 6.9955106 21.30446634 6.9955106 17 4 C17 3.34 17 2.68 17 2 C11.06 2 5.12 2 -1 2 C-0.67 1.34 -0.34 0.68 0 0 Z " fill="#EFEBA4" transform="translate(89,101)"/>
<path d="M0 0 C3.3 0.33 6.6 0.66 10 1 C8.68 1.33 7.36 1.66 6 2 C6 2.99 6 3.98 6 5 C6.87640137 5.41451416 6.87640137 5.41451416 7.77050781 5.83740234 C9.90537054 6.95065424 11.74032676 8.1695526 13.671875 9.6015625 C14.33574219 10.09140625 14.99960938 10.58125 15.68359375 11.0859375 C16.36550781 11.59382812 17.04742187 12.10171875 17.75 12.625 C18.44738281 13.140625 19.14476563 13.65625 19.86328125 14.1875 C21.57755267 15.45559119 23.28905156 16.7274289 25 18 C24.67 18.66 24.34 19.32 24 20 C23.10539062 19.35933594 22.21078125 18.71867187 21.2890625 18.05859375 C20.70785645 17.64295166 20.12665039 17.22730957 19.52783203 16.79907227 C18.25453662 15.8879652 16.98208082 14.97568366 15.71044922 14.06225586 C11.10558705 10.76216291 6.43639446 7.57493979 1.6953125 4.47265625 C1.13585938 3.98667969 0.57640625 3.50070313 0 3 C0 2.01 0 1.02 0 0 Z " fill="#F9F142" transform="translate(57,131)"/>
<path d="M0 0 C0.33 0 0.66 0 1 0 C1.91549773 5.47101445 2.18298262 10.76967057 2.1875 16.3125 C2.19974609 17.12267578 2.21199219 17.93285156 2.22460938 18.76757812 C2.22980209 20.84639427 2.12305073 22.92482241 2 25 C1.34 25.66 0.68 26.32 0 27 C0 25.35 0 23.7 0 22 C-0.66 22 -1.32 22 -2 22 C-2.02686553 20.02090602 -2.04633375 18.04171029 -2.0625 16.0625 C-2.07410156 14.96035156 -2.08570313 13.85820313 -2.09765625 12.72265625 C-2 10 -2 10 -1 9 C-0.76807135 7.48530552 -0.58784762 5.96245438 -0.4375 4.4375 C-0.35371094 3.61121094 -0.26992187 2.78492187 -0.18359375 1.93359375 C-0.12300781 1.29550781 -0.06242188 0.65742187 0 0 Z " fill="#64520B" transform="translate(5,91)"/>
<path d="M0 0 C3.51705958 0.65271556 6.89325077 1.51393024 10.3125 2.5625 C11.19550781 2.83191406 12.07851562 3.10132813 12.98828125 3.37890625 C13.65214844 3.58386719 14.31601563 3.78882813 15 4 C14.34 5.65 13.68 7.3 13 9 C9.44219804 8.39009109 6.3171411 7.4216319 3 6 C3.33 5.01 3.66 4.02 4 3 C2.35 2.67 0.7 2.34 -1 2 C-0.67 1.34 -0.34 0.68 0 0 Z " fill="#F0D41E" transform="translate(66,193)"/>
<path d="M0 0 C1.85625 0.0309375 1.85625 0.0309375 3.75 0.0625 C0.38347991 2.30684673 -2.33024881 2.96559448 -6.25 3.9375 C-12.74610684 5.58976207 -19.00152633 7.62026913 -25.25 10.0625 C-24.92 9.0725 -24.59 8.0825 -24.25 7.0625 C-21.64231738 5.87799332 -19.13180426 4.87567419 -16.4375 3.9375 C-15.71240234 3.67324219 -14.98730469 3.40898437 -14.24023438 3.13671875 C-9.46047602 1.41373175 -5.13009338 -0.08550156 0 0 Z " fill="#F8F59A" transform="translate(86.25,9.9375)"/>
<path d="M0 0 C1.9375 0.8125 1.9375 0.8125 4 2 C4.33 2.99 4.66 3.98 5 5 C4.525625 5.433125 4.05125 5.86625 3.5625 6.3125 C1.76313043 8.02309613 1.76313043 8.02309613 1 11 C-4.29653879 11.93959624 -9.08668517 11.98841115 -14.4375 11.5625 C-15.16904297 11.51029297 -15.90058594 11.45808594 -16.65429688 11.40429688 C-18.43668622 11.27615124 -20.2184257 11.1390184 -22 11 C-22 10.67 -22 10.34 -22 10 C-14.74 10 -7.48 10 0 10 C-0.33 8.35 -0.66 6.7 -1 5 C-0.5625 2.1875 -0.5625 2.1875 0 0 Z " fill="#FDE239" transform="translate(137,120)"/>
<path d="M0 0 C4.96218457 7.44327685 4.24806287 15.88559882 4.125 24.5 C4.11597656 25.70398438 4.10695312 26.90796875 4.09765625 28.1484375 C4.07423775 31.0991679 4.04143993 34.04947689 4 37 C3.67 37 3.34 37 3 37 C2.96241577 36.09906616 2.96241577 36.09906616 2.92407227 35.17993164 C2.8084472 32.47388563 2.68557064 29.76821717 2.5625 27.0625 C2.52318359 26.11697266 2.48386719 25.17144531 2.44335938 24.19726562 C2.40146484 23.29814453 2.35957031 22.39902344 2.31640625 21.47265625 C2.26141968 20.22367554 2.26141968 20.22367554 2.20532227 18.94946289 C2.20632897 16.99661142 2.20632897 16.99661142 1 16 C0.76321284 13.30764224 0.57801975 10.63501844 0.4375 7.9375 C0.39431641 7.17888672 0.35113281 6.42027344 0.30664062 5.63867188 C0.20026367 3.75934562 0.09960066 1.87969756 0 0 Z " fill="#F5EE59" transform="translate(204,78)"/>
<path d="M0 0 C6.35247907 0.90749701 11.55638988 3.03079476 17.25 5.875 C17.93513672 6.21466797 18.62027344 6.55433594 19.32617188 6.90429688 C23.25286114 8.91552796 26.64142898 11.09704908 30 14 C25.4254929 13.46182269 22.78570882 11.52380588 19 9 C17.10926344 8.26293321 15.21646459 7.52893422 13.30078125 6.859375 C8.75994878 5.16330854 4.39303402 3.04308384 0 1 C0 0.67 0 0.34 0 0 Z " fill="#F9F78E" transform="translate(137,12)"/>
<path d="M0 0 C4.16660676 -0.05851976 8.33310637 -0.0937706 12.5 -0.125 C14.25957031 -0.15013672 14.25957031 -0.15013672 16.0546875 -0.17578125 C22.41081848 -0.21148985 27.92457188 0.09015007 34 2 C34 2.33 34 2.66 34 3 C31.35409986 3.02684679 28.70846904 3.04676357 26.0625 3.0625 C24.93038086 3.07506836 24.93038086 3.07506836 23.77539062 3.08789062 C21.85005687 3.09652441 19.92464419 3.05224333 18 3 C17.67 2.67 17.34 2.34 17 2 C14.14122091 1.76298761 11.30116703 1.57780818 8.4375 1.4375 C7.63119141 1.39431641 6.82488281 1.35113281 5.99414062 1.30664062 C3.99631195 1.20024738 1.9981793 1.09959112 0 1 C0 0.67 0 0.34 0 0 Z " fill="#FAF99D" transform="translate(97,8)"/>
<path d="M0 0 C9.63652568 2.62814337 15.48363325 13.3821602 21 21 C20.01 21 19.02 21 18 21 C16.28125 19.1015625 16.28125 19.1015625 14.5 16.625 C12.38719937 13.70599913 11.03699026 12.02466017 8 10 C7.690625 9.34 7.38125 8.68 7.0625 8 C6.16275904 5.83968364 6.16275904 5.83968364 4 5 C1.50983207 3.75491604 1.01313282 2.53283204 0 0 Z " fill="#1F1403" transform="translate(168,36)"/>
<path d="M0 0 C0 1.65 0 3.3 0 5 C-0.99 5 -1.98 5 -3 5 C-5.35942805 6.57101966 -7.61625426 8.17037484 -9.875 9.875 C-13.78688635 12.81509143 -17.29478406 15.44352172 -22 17 C-18.36858871 13.21217961 -14.56013788 9.97046363 -10.375 6.8125 C-9.80265625 6.37486328 -9.2303125 5.93722656 -8.640625 5.48632812 C-1.43720181 0 -1.43720181 0 0 0 Z " fill="#F2EFAB" transform="translate(79,68)"/>
<path d="M0 0 C0.99 0.33 1.98 0.66 3 1 C2.69106068 2.6256807 2.3777305 4.25052748 2.0625 5.875 C1.88847656 6.77992187 1.71445312 7.68484375 1.53515625 8.6171875 C0.76773717 12.03416295 -0.51222882 13.62039278 -3 16 C-4.64451156 9.5589964 -3.05498079 5.78217394 0 0 Z " fill="#FBE634" transform="translate(17,63)"/>
<path d="M0 0 C1.43472656 -0.02126953 1.43472656 -0.02126953 2.8984375 -0.04296875 C5.65510017 0.19004428 7.27447395 0.77829836 9.625 2.1875 C7.56577867 2.72114887 5.50243893 3.23892189 3.4375 3.75 C2.28894531 4.04003906 1.14039062 4.33007812 -0.04296875 4.62890625 C-3.25980093 5.16818761 -5.27172783 5.06997476 -8.375 4.1875 C-8.045 3.1975 -7.715 2.2075 -7.375 1.1875 C-4.801671 -0.0991645 -2.87276962 0.01925449 0 0 Z " fill="#F9EF49" transform="translate(83.375,12.8125)"/>
<path d="M0 0 C2.51686052 3.77529079 2.97724545 7.0916193 3.75 11.5 C3.90082031 12.27214844 4.05164063 13.04429687 4.20703125 13.83984375 C5.24190448 19.63714328 5.24190448 19.63714328 3 23 C3 22.01 3 21.02 3 20 C2.34 19.67 1.68 19.34 1 19 C0.49490781 16.16734847 0.1116848 13.41751157 -0.1875 10.5625 C-0.28224609 9.77294922 -0.37699219 8.98339844 -0.47460938 8.16992188 C-1.13378158 2.26756315 -1.13378158 2.26756315 0 0 Z " fill="#544005" transform="translate(6,116)"/>
<path d="M0 0 C2.80561393 1.40280696 3.00680507 3.0509005 4.125 5.9375 C4.47820313 6.83339844 4.83140625 7.72929687 5.1953125 8.65234375 C6 11 6 11 6 13 C7.32 12.67 8.64 12.34 10 12 C11.09658936 15.28976808 10.79953138 16.71303767 10 20 C7 19 7 19 5.17578125 15.5078125 C4.54354127 14.05166401 3.92288863 12.59044244 3.3125 11.125 C2.99216797 10.39152344 2.67183594 9.65804687 2.34179688 8.90234375 C0 3.41984275 0 3.41984275 0 0 Z " fill="#F8E93F" transform="translate(12,137)"/>
<path d="M0 0 C7.25904881 4.67438749 14.13458887 9.7725296 21 15 C20.01 15.495 20.01 15.495 19 16 C16.74957738 14.39642346 14.49964941 12.79216064 12.25 11.1875 C11.61578125 10.73568359 10.9815625 10.28386719 10.328125 9.81835938 C7.19148171 7.58023369 4.06803042 5.33201302 1 3 C1 4.65 1 6.3 1 8 C0.67 8 0.34 8 0 8 C0 5.36 0 2.72 0 0 Z " fill="#F7F4A6" transform="translate(136,117)"/>
<path d="M0 0 C7.26 0 14.52 0 22 0 C19 2 19 2 15 2 C14.67 2.99 14.34 3.98 14 5 C14 4.34 14 3.68 14 3 C9.71 3 5.42 3 1 3 C0.67 2.01 0.34 1.02 0 0 Z " fill="#412E04" transform="translate(100,206)"/>
<path d="M0 0 C-0.33 3.3 -0.66 6.6 -1 10 C-1.33 10 -1.66 10 -2 10 C-2 7.69 -2 5.38 -2 3 C-2.65226562 3.45890625 -3.30453125 3.9178125 -3.9765625 4.390625 C-8.61675291 7.6483398 -13.26346345 10.88385753 -18 14 C-16.47869525 9.98519575 -14.02701459 8.29509917 -10.5625 5.875 C-9.59441406 5.19179687 -8.62632813 4.50859375 -7.62890625 3.8046875 C-2.08658009 0 -2.08658009 0 0 0 Z " fill="#F4F2B4" transform="translate(80,116)"/>
<path d="M0 0 C5.94 0 11.88 0 18 0 C18 0.66 18 1.32 18 2 C17.28972656 2.04898438 16.57945313 2.09796875 15.84765625 2.1484375 C14.46900391 2.26058594 14.46900391 2.26058594 13.0625 2.375 C12.14597656 2.44460937 11.22945312 2.51421875 10.28515625 2.5859375 C9.15400391 2.79089844 9.15400391 2.79089844 8 3 C7.67 3.66 7.34 4.32 7 5 C3.90837736 3.61410019 2.50816459 2.50816459 0 0 Z " fill="#FBE846" transform="translate(88,103)"/>
<path d="M0 0 C0.33 0 0.66 0 1 0 C1 6.6 1 13.2 1 20 C0.67 20 0.34 20 0 20 C-0.33 18.35 -0.66 16.7 -1 15 C-1.33 17.31 -1.66 19.62 -2 22 C-2.33 22 -2.66 22 -3 22 C-3 18.37 -3 14.74 -3 11 C-2.34 11 -1.68 11 -1 11 C-1.01160156 10.28972656 -1.02320313 9.57945313 -1.03515625 8.84765625 C-1.04417969 7.92855469 -1.05320312 7.00945312 -1.0625 6.0625 C-1.07410156 5.14597656 -1.08570313 4.22945313 -1.09765625 3.28515625 C-1 1 -1 1 0 0 Z " fill="#FCE328" transform="translate(11,90)"/>
<path d="M0 0 C4.17443363 3.50074982 8.3145494 6.97950843 12 11 C12 11.66 12 12.32 12 13 C7.38 13 2.76 13 -2 13 C-2 12.67 -2 12.34 -2 12 C1.3 12 4.6 12 8 12 C7.67 11.01 7.34 10.02 7 9 C6.34 8.67 5.68 8.34 5 8 C5 7.34 5 6.68 5 6 C4.01 5.67 3.02 5.34 2 5 C2 4.34 2 3.68 2 3 C1.34 3 0.68 3 0 3 C0 2.01 0 1.02 0 0 Z " fill="#FEE73B" transform="translate(107,105)"/>
<path d="M0 0 C2.64 0 5.28 0 8 0 C4.23156953 4.12172083 0.11095695 7.63068221 -5 10 C-5.66 9.67 -6.32 9.34 -7 9 C-6.030625 8.443125 -5.06125 7.88625 -4.0625 7.3125 C-0.81008721 5.31964195 -0.81008721 5.31964195 -0.125 2.25 C-0.08375 1.5075 -0.0425 0.765 0 0 Z " fill="#F6DD28" transform="translate(164,183)"/>
<path d="M0 0 C0.66 0.33 1.32 0.66 2 1 C1.04738281 1.74765625 0.09476563 2.4953125 -0.88671875 3.265625 C-2.1536552 4.26040473 -3.42058176 5.25519707 -4.6875 6.25 C-5.31333984 6.74113281 -5.93917969 7.23226562 -6.58398438 7.73828125 C-10.06949833 10.47559587 -13.54438095 13.22493308 -17 16 C-17.66 15.67 -18.32 15.34 -19 15 C-13.00682279 9.3696665 -7.00949532 4.31744277 0 0 Z " fill="#0E0902" transform="translate(154,88)"/>
<path d="M0 0 C0 0.66 0 1.32 0 2 C0.66 2.33 1.32 2.66 2 3 C-1.3 2.67 -4.6 2.34 -8 2 C-7.34 2.66 -6.68 3.32 -6 4 C-12.625 4.125 -12.625 4.125 -16 3 C-16 2.34 -16 1.68 -16 1 C-5.62642369 -1.48063781 -5.62642369 -1.48063781 0 0 Z " fill="#FBF76F" transform="translate(137,11)"/>
<path d="M0 0 C0.99 0.33 1.98 0.66 3 1 C0.71234889 2.67243423 -1.57973892 4.33806927 -3.875 6 C-4.52597656 6.47695312 -5.17695313 6.95390625 -5.84765625 7.4453125 C-10.7734375 11 -10.7734375 11 -13 11 C-12.73828125 9.12890625 -12.73828125 9.12890625 -12 7 C-10.29296875 5.83984375 -10.29296875 5.83984375 -8.1875 4.9375 C-5.70222925 3.81912816 -3.85076239 2.88302998 -1.6875 1.1875 C-1.130625 0.795625 -0.57375 0.40375 0 0 Z " fill="#F4EA52" transform="translate(152,87)"/>
<path d="M0 0 C0 0.66 0 1.32 0 2 C-3.63 2 -7.26 2 -11 2 C-11 2.66 -11 3.32 -11 4 C-13.97 3.67 -16.94 3.34 -20 3 C-13.40177986 -0.29911007 -7.22644436 -0.1285336 0 0 Z " fill="#1A1103" transform="translate(103,14)"/>
<path d="M0 0 C-0.99 0.33 -1.98 0.66 -3 1 C-3 1.66 -3 2.32 -3 3 C-2.01 3.33 -1.02 3.66 0 4 C-12.87 3.505 -12.87 3.505 -26 3 C-26 2.67 -26 2.34 -26 2 C-24.80761719 1.93941406 -23.61523438 1.87882813 -22.38671875 1.81640625 C-20.82030075 1.73198851 -19.25389512 1.64734113 -17.6875 1.5625 C-16.90181641 1.52318359 -16.11613281 1.48386719 -15.30664062 1.44335938 C-14.54931641 1.40146484 -13.79199219 1.35957031 -13.01171875 1.31640625 C-12.31522217 1.27974854 -11.61872559 1.24309082 -10.90112305 1.20532227 C-7.09053528 0.79377683 -3.94478324 -0.08766185 0 0 Z " fill="#EEDC34" transform="translate(124,11)"/>
<path d="M0 0 C2.98955141 2.74042213 5.23728232 5.18073368 7.1875 8.75 C8.62678935 12.04811835 8.62678935 12.04811835 11 13 C11 14.98 11 16.96 11 19 C7.75177521 16.22312644 5.87816944 12.60938618 3.8125 8.9375 C3.44447266 8.30005859 3.07644531 7.66261719 2.69726562 7.00585938 C0 2.25687036 0 2.25687036 0 0 Z " fill="#5C470A" transform="translate(191,48)"/>
<path d="M0 0 C-2.22855378 1.43845758 -4.45781857 2.87579219 -6.6875 4.3125 C-7.31333984 4.71662109 -7.93917969 5.12074219 -8.58398438 5.53710938 C-12.02244559 7.75140639 -15.47821129 9.91924912 -19 12 C-17.51453018 8.21121744 -15.46285806 6.62334949 -12.125 4.375 C-11.26132812 3.78460937 -10.39765625 3.19421875 -9.5078125 2.5859375 C-3.5483871 -1.1827957 -3.5483871 -1.1827957 0 0 Z " fill="#F8F79E" transform="translate(60,21)"/>
<path d="M0 0 C0.66 0.33 1.32 0.66 2 1 C1.67 1.66 1.34 2.32 1 3 C1.66 3.33 2.32 3.66 3 4 C-0.32900287 4.68991408 -3.66223244 5.35382375 -7 6 C-7.71027344 6.14050781 -8.42054687 6.28101563 -9.15234375 6.42578125 C-11 6.75 -11 6.75 -14 7 C-14.66 6.34 -15.32 5.68 -16 5 C-13 4 -13 4 -10 4 C-7.38385355 3.01205491 -4.84040183 1.89515322 -2.27734375 0.77734375 C-1.52582031 0.52082031 -0.77429688 0.26429687 0 0 Z " fill="#FBF464" transform="translate(74,14)"/>
<path d="M0 0 C0.66 0.66 1.32 1.32 2 2 C1.2575 2.4125 0.515 2.825 -0.25 3.25 C-3.05084308 4.89266462 -3.05084308 4.89266462 -5.1875 7.1875 C-5.785625 7.785625 -6.38375 8.38375 -7 9 C-7.66 9 -8.32 9 -9 9 C-9 9.66 -9 10.32 -9 11 C-10.98 11.33 -12.96 11.66 -15 12 C-11.99764638 8.82608332 -8.80246358 6.28747399 -5.25 3.75 C-4.26515625 3.04359375 -3.2803125 2.3371875 -2.265625 1.609375 C-1.51796875 1.07828125 -0.7703125 0.5471875 0 0 Z " fill="#130C01" transform="translate(151,138)"/>
<path d="M0 0 C0.66 0 1.32 0 2 0 C2.06058594 0.62648438 2.12117188 1.25296875 2.18359375 1.8984375 C2.26738281 2.71570313 2.35117188 3.53296875 2.4375 4.375 C2.55931641 5.59316406 2.55931641 5.59316406 2.68359375 6.8359375 C2.89090114 9.04272805 2.89090114 9.04272805 4 11 C2.35 11 0.7 11 -1 11 C-0.34 10.67 0.32 10.34 1 10 C0.67 8.68 0.34 7.36 0 6 C-1.65 6 -3.3 6 -5 6 C-3.38405168 3.95880212 -1.7143618 1.95927063 0 0 Z " fill="#FEF157" transform="translate(76,119)"/>
<path d="M0 0 C0.97453125 0.05220703 1.9490625 0.10441406 2.953125 0.15820312 C5.34413402 0.28713008 7.73464426 0.42205944 10.125 0.5625 C10.125 0.8925 10.125 1.2225 10.125 1.5625 C6.18828959 1.78811734 2.25071465 1.99002827 -1.6875 2.1875 C-2.80705078 2.25195312 -3.92660156 2.31640625 -5.08007812 2.3828125 C-6.15322266 2.434375 -7.22636719 2.4859375 -8.33203125 2.5390625 C-9.8166687 2.61761475 -9.8166687 2.61761475 -11.33129883 2.69775391 C-13.875 2.5625 -13.875 2.5625 -16.875 0.5625 C-11.18901066 -0.72977031 -5.76696518 -0.33992274 0 0 Z " fill="#FAF67C" transform="translate(103.875,8.4375)"/>
<path d="M0 0 C0.99 1.32 1.98 2.64 3 4 C-0.63 4.33 -4.26 4.66 -8 5 C-8.66 4.01 -9.32 3.02 -10 2 C-6.38026598 0.68373308 -3.90432869 0 0 0 Z " fill="#F7CA16" transform="translate(147,194)"/>
<path d="M0 0 C2.25 -0.375 2.25 -0.375 5 0 C7.91497071 3.48177056 9.46899792 6.4864823 10 11 C9.34 11 8.68 11 8 11 C6.7109375 9.5390625 6.7109375 9.5390625 5.375 7.625 C4.70597656 6.68527344 4.70597656 6.68527344 4.0234375 5.7265625 C3 4 3 4 3 2 C2.01 2.33 1.02 2.66 0 3 C0 2.01 0 1.02 0 0 Z " fill="#534A05" transform="translate(19,162)"/>
<path d="M0 0 C3.59391114 1.33488128 6.75490696 2.96022723 10 5 C7.42786866 6.61949011 6.32330841 7.04408751 3.25 6.625 C2.5075 6.41875 1.765 6.2125 1 6 C1.66 5.67 2.32 5.34 3 5 C3 4.34 3 3.68 3 3 C2.01 3 1.02 3 0 3 C0 2.01 0 1.02 0 0 Z " fill="#F7D11C" transform="translate(54,186)"/>
<path d="M0 0 C5.67193509 -0.36203841 10.89083483 0.33577868 16 3 C16.33 3.99 16.66 4.98 17 6 C16.35933594 5.80664062 15.71867188 5.61328125 15.05859375 5.4140625 C10.04889015 3.9059252 5.03460143 2.42282214 0 1 C0 0.67 0 0.34 0 0 Z M14 0 C14.99 0.495 14.99 0.495 16 1 C15.01 1.495 15.01 1.495 14 2 C14 1.34 14 0.68 14 0 Z " fill="#ECDE3D" transform="translate(131,16)"/>
<path d="M0 0 C5.29012124 4.40843437 10.18808428 9.07559794 15 14 C10.92412524 14 10.01409161 12.74008328 7 10 C0 2.63617464 0 2.63617464 0 0 Z " fill="#E9E580" transform="translate(32,164)"/>
<path d="M0 0 C4.60853797 0.72008406 8.67237409 2.31295939 13 4 C9.72814447 5.07310858 7.57052408 4.89263102 4.25 4.0625 C3.45078125 3.86785156 2.6515625 3.67320312 1.828125 3.47265625 C1.22484375 3.31667969 0.6215625 3.16070312 0 3 C0 2.01 0 1.02 0 0 Z " fill="#FBCB11" transform="translate(66,193)"/>
<path d="M0 0 C2 1.8125 2 1.8125 4 4 C4 4.99 4 5.98 4 7 C2.02 7.99 2.02 7.99 0 9 C-1.125 7.3125 -1.125 7.3125 -2 5 C-1.125 2.25 -1.125 2.25 0 0 Z " fill="#F4D524" transform="translate(22,152)"/>
<path d="M0 0 C2.33936818 2.12669835 3.80653848 4.06224856 5 7 C5 7.99 5 8.98 5 10 C4.01 10 3.02 10 2 10 C-0.09350689 6.5980513 -0.17942163 3.94727588 0 0 Z " fill="#FCD922" transform="translate(16,140)"/>
<path d="M0 0 C4.00735217 0.60110283 6.55469371 2.66602028 9.75 5.0625 C10.73484375 5.79597656 11.7196875 6.52945313 12.734375 7.28515625 C13.48203125 7.85105469 14.2296875 8.41695312 15 9 C14.01 9.33 13.02 9.66 12 10 C9.58984375 8.41796875 9.58984375 8.41796875 6.9375 6.1875 C6.05964844 5.45917969 5.18179688 4.73085937 4.27734375 3.98046875 C2.80769625 2.7024048 1.3771912 1.3771912 0 0 Z " fill="#1A1002" transform="translate(57,135)"/>
<path d="M0 0 C3.3 0.33 6.6 0.66 10 1 C8.68 1.33 7.36 1.66 6 2 C5.67 3.32 5.34 4.64 5 6 C2.5 4.6875 2.5 4.6875 0 3 C0 2.01 0 1.02 0 0 Z " fill="#F5DF38" transform="translate(57,131)"/>
<path d="M0 0 C1.9375 0.8125 1.9375 0.8125 4 2 C4.33 2.99 4.66 3.98 5 5 C1.25 8 1.25 8 -1 8 C-0.67 5.36 -0.34 2.72 0 0 Z " fill="#FCEB45" transform="translate(137,120)"/>
<path d="M0 0 C0 3.58912412 -0.66436554 4.10857029 -3 6.6875 C-3.556875 7.31011719 -4.11375 7.93273437 -4.6875 8.57421875 C-5.120625 9.04472656 -5.55375 9.51523438 -6 10 C-6.66 9.01 -7.32 8.02 -8 7 C-3.375 1.125 -3.375 1.125 0 0 Z " fill="#382A06" transform="translate(194,162)"/>
<path d="M0 0 C0.66 0.33 1.32 0.66 2 1 C1.01 1 0.02 1 -1 1 C-0.67 0.67 -0.34 0.34 0 0 Z M-2 2 C-1.67 2.99 -1.34 3.98 -1 5 C-2.65 6.65 -4.3 8.3 -6 10 C-6.66 9.67 -7.32 9.34 -8 9 C-7.8125 7.1875 -7.8125 7.1875 -7 5 C-4.4375 3.25 -4.4375 3.25 -2 2 Z " fill="#231D0B" transform="translate(41,41)"/>
<path d="M0 0 C2.99220268 1.36370299 5.29026529 2.94908083 7.75 5.125 C8.67039062 5.93324219 8.67039062 5.93324219 9.609375 6.7578125 C10.06828125 7.16773438 10.5271875 7.57765625 11 8 C10.34 8.66 9.68 9.32 9 10 C7.49410612 8.71520959 5.99542625 7.42195918 4.5 6.125 C3.6646875 5.40570313 2.829375 4.68640625 1.96875 3.9453125 C1.3190625 3.30335938 0.669375 2.66140625 0 2 C0 1.34 0 0.68 0 0 Z " fill="#F3DE30" transform="translate(34,174)"/>
<path d="M0 0 C0.33 0 0.66 0 1 0 C1.33 4.29 1.66 8.58 2 13 C1.01 13 0.02 13 -1 13 C-1.02696365 11.20841511 -1.04637917 9.41671527 -1.0625 7.625 C-1.07410156 6.62726563 -1.08570313 5.62953125 -1.09765625 4.6015625 C-1 2 -1 2 0 0 Z " fill="#F9F262" transform="translate(133,138)"/>
<path d="M0 0 C0.33 0 0.66 0 1 0 C1.71167986 5.07071901 2.10662326 9.88208358 2 15 C0.5 14 0.5 14 -1 12 C-1.26676927 7.79838392 -1.34346122 4.03038366 0 0 Z " fill="#5F490C" transform="translate(209,97)"/>
<path d="M0 0 C1.0625 1.875 1.0625 1.875 2 4 C1.67 4.66 1.34 5.32 1 6 C-0.875 5.75 -0.875 5.75 -3 5 C-4.25 2.9375 -4.25 2.9375 -5 1 C-3 0 -3 0 0 0 Z " fill="#FBF450" transform="translate(170,29)"/>
<path d="M0 0 C0.33 3.3 0.66 6.6 1 10 C0.01 9.67 -0.98 9.34 -2 9 C-2.34342449 7.66923011 -2.67619874 6.33568021 -3 5 C-3.99 4.34 -4.98 3.68 -6 3 C-1.125 0 -1.125 0 0 0 Z " fill="#EEE563" transform="translate(80,70)"/>
<path d="M0 0 C0.99 0.33 1.98 0.66 3 1 C2.3125 3.4375 2.3125 3.4375 1 6 C-1.625 6.8125 -1.625 6.8125 -4 7 C-4 6.01 -4 5.02 -4 4 C-2.68 3.34 -1.36 2.68 0 2 C0 1.34 0 0.68 0 0 Z " fill="#FBF03F" transform="translate(35,39)"/>
<path d="M0 0 C-0.34879632 3.25543229 -1.02133261 4.01873107 -3.5625 6.25 C-4.366875 6.8275 -5.17125 7.405 -6 8 C-6.66 7.67 -7.32 7.34 -8 7 C-8 6.34 -8 5.68 -8 5 C-2.52380952 0 -2.52380952 0 0 0 Z " fill="#201808" transform="translate(51,32)"/>
<path d="M0 0 C3.26189156 0.5623951 4.91134848 1.4140505 7 4 C7.33 4.99 7.66 5.98 8 7 C6.35 6.67 4.7 6.34 3 6 C3 5.01 3 4.02 3 3 C2.01 2.67 1.02 2.34 0 2 C0 1.34 0 0.68 0 0 Z " fill="#3C2F03" transform="translate(40,183)"/>
<path d="M0 0 C0.66 0 1.32 0 2 0 C0.8905928 3.48670834 -0.26337666 6.77484237 -2 10 C-2.66 10 -3.32 10 -4 10 C-3.34 7.36 -2.68 4.72 -2 2 C-1.34 2 -0.68 2 0 2 C0 1.34 0 0.68 0 0 Z " fill="#221C08" transform="translate(193,143)"/>
<path d="M0 0 C2.13586678 3.20380017 2.23132175 4.01939967 2.125 7.6875 C2.10695313 8.49574219 2.08890625 9.30398437 2.0703125 10.13671875 C2.04710937 10.75160156 2.02390625 11.36648437 2 12 C1.34 11.67 0.68 11.34 0 11 C-0.44921875 9.00390625 -0.44921875 9.00390625 -0.6875 6.5625 C-0.77386719 5.75941406 -0.86023438 4.95632812 -0.94921875 4.12890625 C-1 2 -1 2 0 0 Z " fill="#3D3008" transform="translate(6,116)"/>
<path d="M0 0 C-3.33960156 2.22640104 -6.08610984 3.16130925 -10 4 C-10.99 3.34 -11.98 2.68 -13 2 C-8.50343896 -0.24828052 -4.92127034 -0.16682272 0 0 Z " fill="#F5ED4C" transform="translate(77,18)"/>
<path d="M0 0 C-5.28 -0.33 -10.56 -0.66 -16 -1 C-16 -1.33 -16 -1.66 -16 -2 C-13.89807303 -2.24887295 -11.79326036 -2.4734719 -9.6875 -2.6875 C-7.92986328 -2.87892578 -7.92986328 -2.87892578 -6.13671875 -3.07421875 C-3 -3 -3 -3 0 0 Z " fill="#FDF448" transform="translate(122,120)"/>
<path d="M0 0 C3.59905908 0.55550695 4.99909799 1.74887248 7.25 4.5625 C8.03117187 5.52349609 8.03117187 5.52349609 8.828125 6.50390625 C9.21484375 6.99761719 9.6015625 7.49132812 10 8 C9.01 8 8.02 8 7 8 C7 7.34 7 6.68 7 6 C5.68 5.34 4.36 4.68 3 4 C3 3.34 3 2.68 3 2 C2.01 1.67 1.02 1.34 0 1 C0 0.67 0 0.34 0 0 Z " fill="#140C02" transform="translate(95,112)"/>
<path d="M0 0 C-0.33 0.99 -0.66 1.98 -1 3 C-5.455 3.495 -5.455 3.495 -10 4 C-6.64877401 1.34213111 -4.39380802 0 0 0 Z " fill="#1D1302" transform="translate(147,199)"/>
<path d="M0 0 C2.96865509 2.54456151 4.3619751 5.48994665 6 9 C5.01 9 4.02 9 3 9 C0.50022457 5.66696609 0 4.26696398 0 0 Z " fill="#231A04" transform="translate(17,153)"/>
<path d="M0 0 C0.99 0.33 1.98 0.66 3 1 C1.54634731 2.17249353 0.08692581 3.33783816 -1.375 4.5 C-2.18710938 5.1496875 -2.99921875 5.799375 -3.8359375 6.46875 C-6 8 -6 8 -8 8 C-8 7.34 -8 6.68 -8 6 C-6.35546875 4.45703125 -6.35546875 4.45703125 -4.1875 2.8125 C-3.47980469 2.26207031 -2.77210938 1.71164063 -2.04296875 1.14453125 C-1.36878906 0.76683594 -0.69460937 0.38914063 0 0 Z " fill="#F4E93C" transform="translate(144,141)"/>
<path d="M0 0 C4.75 1.875 4.75 1.875 7 3 C7 3.66 7 4.32 7 5 C7.99 5.33 8.98 5.66 10 6 C9.34 6.66 8.68 7.32 8 8 C6 6.625 6 6.625 4 5 C4 4.34 4 3.68 4 3 C2.68 2.34 1.36 1.68 0 1 C0 0.67 0 0.34 0 0 Z " fill="#F3EF7C" transform="translate(166,26)"/>
<path d="M0 0 C-0.33 0.99 -0.66 1.98 -1 3 C-3.64 3.33 -6.28 3.66 -9 4 C-9 3.01 -9 2.02 -9 1 C-5.92677456 0.08941469 -3.19902639 -0.08886184 0 0 Z " fill="#F6C213" transform="translate(135,198)"/>
<path d="M0 0 C3.43595166 1.52708963 6.11912454 3.59927045 9 6 C8.01 6.495 8.01 6.495 7 7 C4.5249829 5.88568235 2.32116581 4.41849022 0 3 C0 2.01 0 1.02 0 0 Z " fill="#FDF15A" transform="translate(131,70)"/>
<path d="M0 0 C0.66 0.33 1.32 0.66 2 1 C1.43628586 4.26954202 0.50037734 5.82575883 -2 8 C-2.66 7.34 -3.32 6.68 -4 6 C-2.68 4.02 -1.36 2.04 0 0 Z " fill="#251B07" transform="translate(29,52)"/>
<path d="M0 0 C0.66 0.33 1.32 0.66 2 1 C1.67 2.32 1.34 3.64 1 5 C-1.97 5.66 -4.94 6.32 -8 7 C-5.4837822 4.39391727 -2.94865641 2.10618315 0 0 Z " fill="#FCF35D" transform="translate(53,24)"/>
<path d="M0 0 C0.66 0.99 1.32 1.98 2 3 C-5.42857143 3.28571429 -5.42857143 3.28571429 -9 1 C-5.73842267 -0.08719244 -3.41589896 -0.29071481 0 0 Z " fill="#392A03" transform="translate(95,205)"/>
<path d="M0 0 C-0.33 0.66 -0.66 1.32 -1 2 C-3.97 2 -6.94 2 -10 2 C-9 0 -9 0 -7.25 -0.6875 C-4.60760177 -1.05449975 -2.57327078 -0.64331769 0 0 Z " fill="#2C1E04" transform="translate(140,203)"/>
<path d="M0 0 C-2 2 -2 2 -5 2.25 C-8 2 -8 2 -10 0 C-6.30581799 -1.231394 -3.7943739 -0.64432764 0 0 Z " fill="#F9C716" transform="translate(87,199)"/>
<path d="M0 0 C0.66 0 1.32 0 2 0 C1.125 5.75 1.125 5.75 0 8 C-0.99 7.67 -1.98 7.34 -3 7 C-2.01 4.69 -1.02 2.38 0 0 Z " fill="#312708" transform="translate(202,142)"/>
<path d="M0 0 C2.125 0.9375 2.125 0.9375 4 2 C1.625 3.5625 1.625 3.5625 -1 5 C-1.66 4.67 -2.32 4.34 -3 4 C-2.67 3.01 -2.34 2.02 -2 1 C-1.34 0.67 -0.68 0.34 0 0 Z " fill="#261C08" transform="translate(64,23)"/>
<path d="M0 0 C0.66 0 1.32 0 2 0 C2.66 2.31 3.32 4.62 4 7 C2.35 7 0.7 7 -1 7 C-0.34 6.67 0.32 6.34 1 6 C0.34 4.35 -0.32 2.7 -1 1 C-0.67 0.67 -0.34 0.34 0 0 Z " fill="#FDEB46" transform="translate(76,123)"/>
<path d="M0 0 C-0.33 3.3 -0.66 6.6 -1 10 C-1.33 10 -1.66 10 -2 10 C-2 7.69 -2 5.38 -2 3 C-2.99 3.33 -3.98 3.66 -5 4 C-5 3.34 -5 2.68 -5 2 C-2 0 -2 0 0 0 Z " fill="#FCFBC2" transform="translate(80,116)"/>
<path d="M0 0 C3.36720387 1.39332574 4.9859524 2.9789286 7 6 C3.75728494 5.4409112 2.06942576 4.5867822 0 2 C0 1.34 0 0.68 0 0 Z " fill="#271903" transform="translate(90,106)"/>
<path d="M0 0 C0.99 0 1.98 0 3 0 C2.67 2.31 2.34 4.62 2 7 C1.01 6.67 0.02 6.34 -1 6 C-0.67 4.02 -0.34 2.04 0 0 Z " fill="#221A09" transform="translate(16,79)"/>
<path d="M0 0 C0.33 0 0.66 0 1 0 C1 1.65 1 3.3 1 5 C0.01 5 -0.98 5 -2 5 C-3.33981486 5.3062434 -4.67511887 5.63451555 -6 6 C-4 4 -2 2 0 0 Z " fill="#F9F8C8" transform="translate(78,68)"/>
<path d="M0 0 C0 0.66 0 1.32 0 2 C-2.97 1.67 -5.94 1.34 -9 1 C-4.82091936 -1.08954032 -4.19589427 -1.16552619 0 0 Z " fill="#2D1E06" transform="translate(92,16)"/>
<path d="M0 0 C0.66 0.66 1.32 1.32 2 2 C1.01 2.495 1.01 2.495 0 3 C0 2.01 0 1.02 0 0 Z " fill="#C93500" transform="translate(67,202)"/>
<path d="M0 0 C0 3 0 3 0 3 Z " fill="#DF1F00" transform="translate(201,153)"/>
<path d="M0 0 C1 4 1 4 1 4 Z " fill="#A0901C" transform="translate(3,114)"/>
<path d="M0 0 C3 1 3 1 3 1 Z " fill="#E21C00" transform="translate(84,208)"/>
<path d="M0 0 C3 1 3 1 3 1 Z " fill="#D42A00" transform="translate(144,203)"/>
<path d="M0 0 C3 1 3 1 3 1 Z " fill="#B8B800" transform="translate(2,122)"/>
<path d="M0 0 C3 1 3 1 3 1 Z " fill="#EEDD11" transform="translate(75,8)"/>
<path d="M0 0 C2 1 2 1 2 1 Z " fill="#7F7F00" transform="translate(92,209)"/>
<path d="" fill="#FF0000" transform="translate(0,0)"/>
<path d="M0 0 C2 1 2 1 2 1 Z " fill="#FF0000" transform="translate(128,208)"/>
<path d="M0 0 C2 1 2 1 2 1 Z " fill="#BF3F00" transform="translate(37,184)"/>
<path d="" fill="#BF3F00" transform="translate(0,0)"/>
<path d="" fill="#FF0000" transform="translate(0,0)"/>
<path d="" fill="#FFFF00" transform="translate(0,0)"/>
<path d="" fill="#FFFF00" transform="translate(0,0)"/>
<path d="" fill="#A1A119" transform="translate(0,0)"/>
<path d="M0 0 C2 1 2 1 2 1 Z " fill="#FFFF00" transform="translate(3,124)"/>
<path d="" fill="#FFFF00" transform="translate(0,0)"/>
<path d="" fill="#D4D400" transform="translate(0,0)"/>
<path d="" fill="#949400" transform="translate(0,0)"/>
<path d="" fill="#FFFF00" transform="translate(0,0)"/>
<path d="M0 0 C2 1 2 1 2 1 Z " fill="#C9B434" transform="translate(27,37)"/>
<path d="" fill="#FF7F00" transform="translate(0,0)"/>
<path d="M0 0 C2 1 2 1 2 1 Z " fill="#DF9F1F" transform="translate(135,8)"/>
<path d="M0 0 C2 1 2 1 2 1 Z " fill="#FFBF00" transform="translate(81,7)"/>
<path d="" fill="#FF0000" transform="translate(0,0)"/>
<path d="" fill="#AA5500" transform="translate(0,0)"/>
<path d="" fill="#7F7F00" transform="translate(0,0)"/>
<path d="" fill="#FF0000" transform="translate(0,0)"/>
<path d="" fill="#FF0000" transform="translate(0,0)"/>
<path d="" fill="#AA5500" transform="translate(0,0)"/>
<path d="" fill="#FF0000" transform="translate(0,0)"/>
<path d="" fill="#7F7F00" transform="translate(0,0)"/>
<path d="" fill="#996600" transform="translate(0,0)"/>
<path d="" fill="#AA5500" transform="translate(0,0)"/>
<path d="" fill="#916D00" transform="translate(0,0)"/>
<path d="" fill="#FF0000" transform="translate(0,0)"/>
<path d="" fill="#AA5500" transform="translate(0,0)"/>
<path d="" fill="#FF0000" transform="translate(0,0)"/>
<path d="" fill="#FF0000" transform="translate(0,0)"/>
<path d="" fill="#7F7F00" transform="translate(0,0)"/>
<path d="" fill="#FF0000" transform="translate(0,0)"/>
<path d="" fill="#FF0000" transform="translate(0,0)"/>
<path d="" fill="#AA5500" transform="translate(0,0)"/>
<path d="" fill="#996600" transform="translate(0,0)"/>
<path d="" fill="#7F7F00" transform="translate(0,0)"/>
<path d="" fill="#7F7F00" transform="translate(0,0)"/>
<path d="" fill="#FF0000" transform="translate(0,0)"/>
<path d="" fill="#FF0000" transform="translate(0,0)"/>
<path d="" fill="#FF0000" transform="translate(0,0)"/>
<path d="" fill="#FF0000" transform="translate(0,0)"/>
<path d="" fill="#FF0000" transform="translate(0,0)"/>
<path d="" fill="#FF0000" transform="translate(0,0)"/>
<path d="" fill="#7F7F00" transform="translate(0,0)"/>
<path d="" fill="#FF0000" transform="translate(0,0)"/>
<path d="" fill="#FF0000" transform="translate(0,0)"/>
<path d="" fill="#FF0000" transform="translate(0,0)"/>
<path d="" fill="#7F7F00" transform="translate(0,0)"/>
<path d="" fill="#AA7F00" transform="translate(0,0)"/>
<path d="" fill="#FF0000" transform="translate(0,0)"/>
<path d="" fill="#7F7F00" transform="translate(0,0)"/>
<path d="" fill="#7F7F00" transform="translate(0,0)"/>
<path d="" fill="#7F7F00" transform="translate(0,0)"/>
<path d="" fill="#AA5500" transform="translate(0,0)"/>
<path d="" fill="#AA5500" transform="translate(0,0)"/>
<path d="" fill="#FF0000" transform="translate(0,0)"/>
<path d="" fill="#7F7F00" transform="translate(0,0)"/>
<path d="" fill="#916D24" transform="translate(0,0)"/>
<path d="" fill="#FF0000" transform="translate(0,0)"/>
<path d="" fill="#FFFF00" transform="translate(0,0)"/>
<path d="" fill="#BF7F00" transform="translate(0,0)"/>
<path d="" fill="#AAAA00" transform="translate(0,0)"/>
<path d="" fill="#FFFF00" transform="translate(0,0)"/>
<path d="" fill="#7F7F00" transform="translate(0,0)"/>
<path d="" fill="#7F7F00" transform="translate(0,0)"/>
<path d="" fill="#CC9933" transform="translate(0,0)"/>
<path d="" fill="#FFFF00" transform="translate(0,0)"/>
<path d="" fill="#7F7F00" transform="translate(0,0)"/>
<path d="" fill="#7F7F00" transform="translate(0,0)"/>
<path d="" fill="#FFFF00" transform="translate(0,0)"/>
<path d="" fill="#FFFF00" transform="translate(0,0)"/>
<path d="" fill="#7F7F00" transform="translate(0,0)"/>
<path d="" fill="#FF7F00" transform="translate(0,0)"/>
<path d="" fill="#FF7F00" transform="translate(0,0)"/>
<path d="" fill="#FFFF00" transform="translate(0,0)"/>
<path d="" fill="#FFFF00" transform="translate(0,0)"/>
<path d="" fill="#FFFF00" transform="translate(0,0)"/>
<path d="" fill="#BFBF3F" transform="translate(0,0)"/>
<path d="" fill="#FF7F00" transform="translate(0,0)"/>
<path d="" fill="#FFFF00" transform="translate(0,0)"/>
<path d="" fill="#FFFF00" transform="translate(0,0)"/>
<path d="" fill="#FF7F00" transform="translate(0,0)"/>
<path d="" fill="#FF7F00" transform="translate(0,0)"/>
<path d="" fill="#AAAA55" transform="translate(0,0)"/>
<path d="" fill="#BFBF3F" transform="translate(0,0)"/>
<path d="" fill="#FFFF00" transform="translate(0,0)"/>
<path d="" fill="#AAAA00" transform="translate(0,0)"/>
<path d="" fill="#AAAA55" transform="translate(0,0)"/>
<path d="" fill="#FFFF00" transform="translate(0,0)"/>
<path d="" fill="#FFFF00" transform="translate(0,0)"/>
</svg>
